<?xml version="1.0" encoding="utf-8"?>
<!-- Generator: Adobe Illustrator 27.5.0, SVG Export Plug-In . SVG Version: 6.00 Build 0)  -->
<svg version="1.1" xmlns="http://www.w3.org/2000/svg" xmlns:xlink="http://www.w3.org/1999/xlink" x="0px" y="0px"
	 viewBox="0 0 500 500" style="enable-background:new 0 0 500 500;" xml:space="preserve">
<g id="BACKGROUND">
	<g>
		<g>
			<g>
				<g>
					<path style="fill:#D3D4FE;" d="M45.611,319.823c3.711,21.202,12.338,41.531,25.44,58.149
						c16.065,20.375,38.382,35.771,63.166,43.455c27.22,8.439,56.159,7.499,84.175,4.539c27.127-2.866,53.85-3.707,81.196-2.077
						c26.468,1.578,53.292,3.02,79.275-2.268c25.618-5.214,51.818-18.004,66.848-40.199c16.322-24.102,12.029-56.742-0.087-81.622
						c-9.54-19.59-21.762-38.855-19.205-61.618c1.224-10.897,3.016-21.731,5.368-32.441c4.706-21.433,5.6-44.101,0.336-65.512
						c-4.718-19.192-14.499-37.319-28.977-50.772c-28.272-26.27-74.701-36.344-112.249-36.602
						c-34.346-0.236-68.957,14.884-91.356,41.091c-13.876,16.235-22.471,36.059-34.625,53.484
						c-20.521,29.418-52.404,36.945-79.601,57.706C50.736,231.529,38.331,278.234,45.611,319.823z"/>
				</g>
			</g>
			<g>
				<path style="fill:#D3D4FE;" d="M185.101,57.91c-1.521,0-2.976,0.267-4.337,0.736c-2.748-7.163-9.672-12.258-17.803-12.258
					c-8.194,0-15.161,5.175-17.864,12.426c-1.49-0.576-3.104-0.905-4.798-0.905c-7.357,0-13.32,5.964-13.32,13.32
					c0,7.356,5.964,13.32,13.32,13.32c1.243,0,43.559,0,44.802,0c7.357,0,13.32-5.964,13.32-13.32
					C198.421,63.873,192.458,57.91,185.101,57.91z"/>
				<path style="fill:#D3D4FE;" d="M88.408,156.915c-1.162,0-2.274,0.204-3.315,0.563c-2.1-5.475-7.392-9.368-13.606-9.368
					c-6.262,0-11.587,3.955-13.653,9.497c-1.139-0.441-2.372-0.692-3.667-0.692c-5.622,0-10.18,4.558-10.18,10.18
					c0,5.622,4.558,10.18,10.18,10.18c0.95,0,33.291,0,34.241,0c5.622,0,10.18-4.558,10.18-10.18
					C98.589,161.473,94.031,156.915,88.408,156.915z"/>
				<path style="fill:#D3D4FE;" d="M425.868,45.109c-1.162,0-2.274,0.204-3.315,0.563c-2.1-5.475-7.392-9.368-13.606-9.368
					c-6.262,0-11.587,3.955-13.653,9.497c-1.139-0.441-2.372-0.692-3.667-0.692c-5.622,0-10.18,4.558-10.18,10.18
					c0,5.622,4.558,10.18,10.18,10.18c0.95,0,33.291,0,34.241,0c5.622,0,10.18-4.558,10.18-10.18
					C436.048,49.666,431.49,45.109,425.868,45.109z"/>
			</g>
		</g>
	</g>
</g>
<g id="OBJECTS">
	<g>
		<g>
			<g>
				<path style="fill:#542C84;" d="M425.317,239.112v-16.888h-6.959v-8.285h-7.622v-10.828c0-1.499-0.81-2.882-2.118-3.614l0,0
					c-2.761-1.546-6.167,0.45-6.167,3.614v10.828h-6.297v8.285h-4.971v16.888h-8.285v111.781h51.698V239.112H425.317z"/>
			</g>
			<g>
				<rect x="65.403" y="210.018" style="fill:#542C84;" width="78.231" height="139.903"/>
			</g>
			<g>
				<rect x="256.914" y="162.854" style="fill:#542C84;" width="78.231" height="187.068"/>
			</g>
			<g>
				<rect x="162.362" y="255.941" style="fill:#542C84;" width="78.231" height="93.98"/>
			</g>
		</g>
		<g>
			<g>
				<polygon style="fill:#F1F1FF;" points="377.725,179.498 377.725,154.018 369.225,154.018 369.225,141.518 357.725,141.518 
					357.725,121.518 345.225,114.518 345.225,141.518 335.725,141.518 335.725,154.018 326.225,154.018 326.225,179.498 
					313.725,179.498 313.725,348.148 391.725,348.148 391.725,179.498 				"/>
				<g>
					<g>
						<polygon style="fill:#D5D1FC;" points="341.812,179.726 341.812,155.96 352.467,155.96 352.467,166.757 352.201,166.757 
							352.244,169.233 352.511,169.233 352.467,169.492 352.467,179.726 						"/>
						<path style="fill:#542C84;" d="M352.202,156.227v1.921v8.343c-0.122,0-0.223,0.116-0.223,0.258v2.485
							c0,0.142,0.1,0.258,0.223,0.258v9.968h-3.991h-6.134v-23.233H352.202 M352.733,155.695h-0.532h-10.124h-0.532v0.532v23.233
							v0.532h0.532h6.134h3.991h0.532v-0.532v-9.968v-0.532h-0.223v-1.937h0.223v-0.532v-8.343v-1.921V155.695L352.733,155.695z"/>
					</g>
					<g>
						<polygon style="fill:#D5D1FC;" points="352.983,179.726 352.983,169.303 353.093,169.224 353.097,166.749 352.985,166.669 
							352.983,155.96 363.638,155.96 363.638,179.726 						"/>
						<path style="fill:#542C84;" d="M363.372,156.227v23.233h-0.402h-9.722v-10.021c0.063-0.046,0.113-0.113,0.113-0.205v-2.485
							c0-0.092-0.049-0.16-0.113-0.205v-8.396v-1.921H363.372 M363.904,155.695h-0.532h-10.123h-0.532v0.532v1.921v8.396v0.272
							l0.113,0.081v2.188l-0.113,0.081v0.272v10.021v0.532h0.532h9.722h0.402h0.532v-0.532v-23.233V155.695L363.904,155.695z"/>
					</g>
					<path style="fill:#FFDA7E;" d="M351.979,166.749v2.485c0,0.142,0.1,0.258,0.223,0.258s0.223-0.116,0.223-0.258v-2.485
						c0-0.142-0.1-0.258-0.223-0.258S351.979,166.607,351.979,166.749z"/>
					<path style="fill:#FFDA7E;" d="M353.362,169.234v-2.485c0-0.092-0.049-0.16-0.113-0.205c-0.034-0.025-0.067-0.053-0.11-0.053
						c-0.122,0-0.223,0.116-0.223,0.258v2.485c0,0.142,0.1,0.258,0.223,0.258c0.043,0,0.076-0.029,0.11-0.053
						C353.313,169.393,353.362,169.326,353.362,169.234z"/>
				</g>
				<g>
					<g>
						<rect x="321.822" y="305.991" style="fill:#D5D1FC;" width="24.555" height="9.555"/>
						<path style="fill:#542C84;" d="M346.1,306.268v9h-24v-9H346.1 M346.655,305.713H346.1h-24h-0.555v0.555v9v0.555h0.555h24
							h0.555v-0.555v-9V305.713L346.655,305.713z"/>
					</g>
					<g>
						<rect x="359.072" y="305.991" style="fill:#D5D1FC;" width="24.555" height="9.555"/>
						<path style="fill:#542C84;" d="M383.35,306.268v9h-24v-9H383.35 M383.905,305.713h-0.555h-24h-0.555v0.555v9v0.555h0.555h24
							h0.555v-0.555v-9V305.713L383.905,305.713z"/>
					</g>
					<g>
						<rect x="321.822" y="286.473" style="fill:#D5D1FC;" width="24.555" height="9.555"/>
						<path style="fill:#542C84;" d="M346.1,286.751v9h-24v-9H346.1 M346.655,286.196H346.1h-24h-0.555v0.555v9v0.555h0.555h24
							h0.555v-0.555v-9V286.196L346.655,286.196z"/>
					</g>
					<g>
						<rect x="359.072" y="286.473" style="fill:#D5D1FC;" width="24.555" height="9.555"/>
						<path style="fill:#542C84;" d="M383.35,286.751v9h-24v-9H383.35 M383.905,286.196h-0.555h-24h-0.555v0.555v9v0.555h0.555h24
							h0.555v-0.555v-9V286.196L383.905,286.196z"/>
					</g>
					<g>
						<rect x="321.822" y="266.956" style="fill:#D5D1FC;" width="24.555" height="9.555"/>
						<path style="fill:#542C84;" d="M346.1,267.233v9h-24v-9H346.1 M346.655,266.678H346.1h-24h-0.555v0.555v9v0.555h0.555h24
							h0.555v-0.555v-9V266.678L346.655,266.678z"/>
					</g>
					<g>
						<rect x="359.072" y="266.956" style="fill:#D5D1FC;" width="24.555" height="9.555"/>
						<path style="fill:#542C84;" d="M383.35,267.233v9h-24v-9H383.35 M383.905,266.678h-0.555h-24h-0.555v0.555v9v0.555h0.555h24
							h0.555v-0.555v-9V266.678L383.905,266.678z"/>
					</g>
					<g>
						<rect x="321.822" y="247.439" style="fill:#D5D1FC;" width="24.555" height="9.554"/>
						<path style="fill:#542C84;" d="M346.1,247.716v9h-24v-9H346.1 M346.655,247.161H346.1h-24h-0.555v0.555v9v0.555h0.555h24
							h0.555v-0.555v-9V247.161L346.655,247.161z"/>
					</g>
					<g>
						<rect x="359.072" y="247.439" style="fill:#D5D1FC;" width="24.555" height="9.554"/>
						<path style="fill:#542C84;" d="M383.35,247.716v9h-24v-9H383.35 M383.905,247.161h-0.555h-24h-0.555v0.555v9v0.555h0.555h24
							h0.555v-0.555v-9V247.161L383.905,247.161z"/>
					</g>
					<g>
						<rect x="321.822" y="227.921" style="fill:#D5D1FC;" width="24.555" height="9.555"/>
						<path style="fill:#542C84;" d="M346.1,228.198v9h-24v-9H346.1 M346.655,227.643H346.1h-24h-0.555v0.555v9v0.555h0.555h24
							h0.555v-0.555v-9V227.643L346.655,227.643z"/>
					</g>
					<g>
						<rect x="359.072" y="227.921" style="fill:#D5D1FC;" width="24.555" height="9.555"/>
						<path style="fill:#542C84;" d="M383.35,228.198v9h-24v-9H383.35 M383.905,227.643h-0.555h-24h-0.555v0.555v9v0.555h0.555h24
							h0.555v-0.555v-9V227.643L383.905,227.643z"/>
					</g>
					<g>
						<rect x="321.822" y="208.404" style="fill:#D5D1FC;" width="24.555" height="9.555"/>
						<path style="fill:#542C84;" d="M346.1,208.681v9h-24v-9H346.1 M346.655,208.126H346.1h-24h-0.555v0.555v9v0.555h0.555h24
							h0.555v-0.555v-9V208.126L346.655,208.126z"/>
					</g>
					<g>
						<rect x="359.072" y="208.404" style="fill:#D5D1FC;" width="24.555" height="9.555"/>
						<path style="fill:#542C84;" d="M383.35,208.681v9h-24v-9H383.35 M383.905,208.126h-0.555h-24h-0.555v0.555v9v0.555h0.555h24
							h0.555v-0.555v-9V208.126L383.905,208.126z"/>
					</g>
					<g>
						<rect x="321.822" y="188.886" style="fill:#D5D1FC;" width="24.555" height="9.555"/>
						<path style="fill:#542C84;" d="M346.1,189.163v9h-24v-9H346.1 M346.655,188.609H346.1h-24h-0.555v0.555v9v0.555h0.555h24
							h0.555v-0.555v-9V188.609L346.655,188.609z"/>
					</g>
					<g>
						<rect x="359.072" y="188.886" style="fill:#D5D1FC;" width="24.555" height="9.555"/>
						<path style="fill:#542C84;" d="M383.35,189.163v9h-24v-9H383.35 M383.905,188.609h-0.555h-24h-0.555v0.555v9v0.555h0.555h24
							h0.555v-0.555v-9V188.609L383.905,188.609z"/>
					</g>
				</g>
				<g>
					<g>
						<polygon style="fill:#D5D1FC;" points="341.812,348.246 341.812,324.482 352.467,324.482 352.467,335.277 352.201,335.277 
							352.244,337.753 352.511,337.753 352.467,338.012 352.467,348.246 						"/>
						<path style="fill:#542C84;" d="M352.202,324.747v1.921v8.343c-0.122,0-0.223,0.116-0.223,0.258v2.485
							c0,0.142,0.1,0.258,0.223,0.258v9.968h-3.991h-6.134v-23.233H352.202 M352.733,324.215h-0.532h-10.124h-0.532v0.532v23.233
							v0.532h0.532h6.134h3.991h0.532v-0.532v-9.968v-0.532h-0.223v-1.937h0.223v-0.532v-8.343v-1.921V324.215L352.733,324.215z"/>
					</g>
					<g>
						<polygon style="fill:#D5D1FC;" points="352.983,348.246 352.983,337.821 353.096,337.742 353.097,335.269 352.986,335.189 
							352.983,324.482 363.638,324.482 363.638,348.246 						"/>
						<path style="fill:#542C84;" d="M363.372,324.747v23.233h-0.402h-9.722v-10.021c0.063-0.046,0.113-0.113,0.113-0.205v-2.485
							c0-0.092-0.049-0.159-0.113-0.205v-8.396v-1.921H363.372 M363.904,324.215h-0.532h-10.123h-0.532v0.532v1.921v8.396v0.272
							l0.113,0.081v2.188l-0.113,0.081v0.272v10.021v0.532h0.532h9.722h0.402h0.532v-0.532v-23.233V324.215L363.904,324.215z"/>
					</g>
					<path style="fill:#FFDA7E;" d="M351.979,335.269v2.485c0,0.142,0.1,0.258,0.223,0.258s0.223-0.116,0.223-0.258v-2.485
						c0-0.142-0.1-0.258-0.223-0.258S351.979,335.127,351.979,335.269z"/>
					<path style="fill:#FFDA7E;" d="M353.362,337.754v-2.485c0-0.092-0.049-0.159-0.113-0.205c-0.034-0.024-0.067-0.053-0.11-0.053
						c-0.122,0-0.223,0.116-0.223,0.258v2.485c0,0.142,0.1,0.258,0.223,0.258c0.043,0,0.076-0.029,0.11-0.053
						C353.313,337.913,353.362,337.846,353.362,337.754z"/>
				</g>
			</g>
			<g>
				<path style="fill:#F1F1FF;" d="M248.2,129.138h-30.25v219.01h60.5V161.212L248.2,129.138z"/>
				<g>
					<g>
						<polygon style="fill:#D5D1FC;" points="237.287,348.393 237.287,324.629 247.942,324.629 247.942,335.425 247.677,335.425 
							247.72,337.902 247.986,337.902 247.942,338.161 247.942,348.393 						"/>
						<path style="fill:#542C84;" d="M247.677,324.895v1.921v8.343c-0.122,0-0.223,0.116-0.223,0.258v2.485
							c0,0.142,0.1,0.258,0.223,0.258v9.968h-3.991h-6.133v-23.233H247.677 M248.209,324.363h-0.532h-10.124h-0.532v0.532v23.233
							v0.532h0.532h6.133h3.991h0.532v-0.532v-9.968v-0.532h-0.223v-1.937h0.223v-0.532v-8.343v-1.921V324.363L248.209,324.363z"/>
					</g>
					<g>
						<polygon style="fill:#D5D1FC;" points="248.459,348.393 248.459,337.971 248.568,337.891 248.571,335.418 248.461,335.337 
							248.459,324.629 259.113,324.629 259.113,348.393 						"/>
						<path style="fill:#542C84;" d="M258.848,324.895v23.233h-0.401h-9.722v-10.021c0.063-0.046,0.113-0.113,0.113-0.205v-2.485
							c0-0.092-0.049-0.159-0.113-0.205v-8.396v-1.921H258.848 M259.379,324.363h-0.532h-10.123h-0.532v0.532v1.921v8.396v0.272
							l0.113,0.081v2.188l-0.113,0.081v0.272v10.021v0.532h0.532h9.722h0.401h0.532v-0.532v-23.233V324.363L259.379,324.363z"/>
					</g>
					<path style="fill:#FFDA7E;" d="M247.454,335.417v2.485c0,0.142,0.1,0.258,0.223,0.258c0.123,0,0.223-0.116,0.223-0.258v-2.485
						c0-0.142-0.1-0.258-0.223-0.258C247.554,335.159,247.454,335.275,247.454,335.417z"/>
					<path style="fill:#FFDA7E;" d="M248.837,337.902v-2.485c0-0.092-0.049-0.159-0.113-0.205c-0.034-0.024-0.067-0.053-0.11-0.053
						c-0.122,0-0.223,0.116-0.223,0.258v2.485c0,0.142,0.1,0.258,0.223,0.258c0.043,0,0.076-0.028,0.11-0.053
						C248.788,338.061,248.837,337.994,248.837,337.902z"/>
				</g>
				<g>
					<rect x="223.946" y="302.75" style="fill:#D5D1FC;" width="13.64" height="13.64"/>
					<path style="fill:#542C84;" d="M237.338,302.998v13.143h-13.144v-13.143H237.338 M237.834,302.501h-0.496h-13.144h-0.496v0.496
						v13.143v0.496h0.496h13.144h0.496v-0.496v-13.143V302.501L237.834,302.501z"/>
				</g>
				<g>
					<rect x="242.018" y="302.75" style="fill:#D5D1FC;" width="13.64" height="13.64"/>
					<path style="fill:#542C84;" d="M255.409,302.998v13.143h-13.143v-13.143H255.409 M255.905,302.501h-0.496h-13.143h-0.496v0.496
						v13.143v0.496h0.496h13.143h0.496v-0.496v-13.143V302.501L255.905,302.501z"/>
				</g>
				<g>
					<rect x="260.13" y="302.75" style="fill:#D5D1FC;" width="13.64" height="13.64"/>
					<path style="fill:#542C84;" d="M273.522,302.998v13.143h-13.143v-13.143H273.522 M274.018,302.501h-0.496h-13.143h-0.496v0.496
						v13.143v0.496h0.496h13.143h0.496v-0.496v-13.143V302.501L274.018,302.501z"/>
				</g>
				<g>
					<rect x="223.946" y="283.864" style="fill:#D5D1FC;" width="13.64" height="13.64"/>
					<path style="fill:#542C84;" d="M237.338,284.112v13.143h-13.144v-13.143H237.338 M237.834,283.616h-0.496h-13.144h-0.496v0.496
						v13.143v0.496h0.496h13.144h0.496v-0.496v-13.143V283.616L237.834,283.616z"/>
				</g>
				<g>
					<rect x="242.018" y="283.864" style="fill:#D5D1FC;" width="13.64" height="13.64"/>
					<path style="fill:#542C84;" d="M255.409,284.112v13.143h-13.143v-13.143H255.409 M255.905,283.616h-0.496h-13.143h-0.496v0.496
						v13.143v0.496h0.496h13.143h0.496v-0.496v-13.143V283.616L255.905,283.616z"/>
				</g>
				<g>
					<rect x="260.13" y="283.864" style="fill:#D5D1FC;" width="13.64" height="13.64"/>
					<path style="fill:#542C84;" d="M273.522,284.112v13.143h-13.143v-13.143H273.522 M274.018,283.616h-0.496h-13.143h-0.496v0.496
						v13.143v0.496h0.496h13.143h0.496v-0.496v-13.143V283.616L274.018,283.616z"/>
				</g>
				<g>
					<rect x="223.946" y="264.978" style="fill:#D5D1FC;" width="13.64" height="13.64"/>
					<path style="fill:#542C84;" d="M237.338,265.226v13.143h-13.144v-13.143H237.338 M237.834,264.73h-0.496h-13.144h-0.496v0.496
						v13.143v0.496h0.496h13.144h0.496v-0.496v-13.143V264.73L237.834,264.73z"/>
				</g>
				<g>
					<rect x="242.018" y="264.978" style="fill:#D5D1FC;" width="13.64" height="13.64"/>
					<path style="fill:#542C84;" d="M255.409,265.226v13.143h-13.143v-13.143H255.409 M255.905,264.73h-0.496h-13.143h-0.496v0.496
						v13.143v0.496h0.496h13.143h0.496v-0.496v-13.143V264.73L255.905,264.73z"/>
				</g>
				<g>
					<rect x="260.13" y="264.978" style="fill:#D5D1FC;" width="13.64" height="13.64"/>
					<path style="fill:#542C84;" d="M273.522,265.226v13.143h-13.143v-13.143H273.522 M274.018,264.73h-0.496h-13.143h-0.496v0.496
						v13.143v0.496h0.496h13.143h0.496v-0.496v-13.143V264.73L274.018,264.73z"/>
				</g>
				<g>
					<rect x="223.946" y="246.093" style="fill:#D5D1FC;" width="13.64" height="13.639"/>
					<path style="fill:#542C84;" d="M237.338,246.341v13.143h-13.144v-13.143H237.338 M237.834,245.844h-0.496h-13.144h-0.496v0.496
						v13.143v0.496h0.496h13.144h0.496v-0.496v-13.143V245.844L237.834,245.844z"/>
				</g>
				<g>
					<rect x="242.018" y="246.093" style="fill:#D5D1FC;" width="13.64" height="13.639"/>
					<path style="fill:#542C84;" d="M255.409,246.341v13.143h-13.143v-13.143H255.409 M255.905,245.844h-0.496h-13.143h-0.496v0.496
						v13.143v0.496h0.496h13.143h0.496v-0.496v-13.143V245.844L255.905,245.844z"/>
				</g>
				<g>
					<rect x="260.13" y="246.093" style="fill:#D5D1FC;" width="13.64" height="13.639"/>
					<path style="fill:#542C84;" d="M273.522,246.341v13.143h-13.143v-13.143H273.522 M274.018,245.844h-0.496h-13.143h-0.496v0.496
						v13.143v0.496h0.496h13.143h0.496v-0.496v-13.143V245.844L274.018,245.844z"/>
				</g>
				<g>
					<rect x="223.946" y="227.207" style="fill:#D5D1FC;" width="13.64" height="13.64"/>
					<path style="fill:#542C84;" d="M237.338,227.455v13.143h-13.144v-13.143H237.338 M237.834,226.959h-0.496h-13.144h-0.496v0.496
						v13.143v0.496h0.496h13.144h0.496v-0.496v-13.143V226.959L237.834,226.959z"/>
				</g>
				<g>
					<rect x="242.018" y="227.207" style="fill:#D5D1FC;" width="13.64" height="13.64"/>
					<path style="fill:#542C84;" d="M255.409,227.455v13.143h-13.143v-13.143H255.409 M255.905,226.959h-0.496h-13.143h-0.496v0.496
						v13.143v0.496h0.496h13.143h0.496v-0.496v-13.143V226.959L255.905,226.959z"/>
				</g>
				<g>
					<rect x="260.13" y="227.207" style="fill:#D5D1FC;" width="13.64" height="13.64"/>
					<path style="fill:#542C84;" d="M273.522,227.455v13.143h-13.143v-13.143H273.522 M274.018,226.959h-0.496h-13.143h-0.496v0.496
						v13.143v0.496h0.496h13.143h0.496v-0.496v-13.143V226.959L274.018,226.959z"/>
				</g>
				<g>
					<rect x="223.946" y="208.321" style="fill:#D5D1FC;" width="13.64" height="13.64"/>
					<path style="fill:#542C84;" d="M237.338,208.57v13.144h-13.144V208.57H237.338 M237.834,208.073h-0.496h-13.144h-0.496v0.496
						v13.144v0.496h0.496h13.144h0.496v-0.496V208.57V208.073L237.834,208.073z"/>
				</g>
				<g>
					<rect x="242.018" y="208.321" style="fill:#D5D1FC;" width="13.64" height="13.64"/>
					<path style="fill:#542C84;" d="M255.409,208.57v13.144h-13.143V208.57H255.409 M255.905,208.073h-0.496h-13.143h-0.496v0.496
						v13.144v0.496h0.496h13.143h0.496v-0.496V208.57V208.073L255.905,208.073z"/>
				</g>
				<g>
					<rect x="260.13" y="208.321" style="fill:#D5D1FC;" width="13.64" height="13.64"/>
					<path style="fill:#542C84;" d="M273.522,208.57v13.144h-13.143V208.57H273.522 M274.018,208.073h-0.496h-13.143h-0.496v0.496
						v13.144v0.496h0.496h13.143h0.496v-0.496V208.57V208.073L274.018,208.073z"/>
				</g>
				<g>
					<rect x="223.946" y="189.436" style="fill:#D5D1FC;" width="13.64" height="13.64"/>
					<path style="fill:#542C84;" d="M237.338,189.684v13.143h-13.144v-13.143H237.338 M237.834,189.188h-0.496h-13.144h-0.496v0.496
						v13.143v0.496h0.496h13.144h0.496v-0.496v-13.143V189.188L237.834,189.188z"/>
				</g>
				<g>
					<rect x="242.018" y="189.436" style="fill:#D5D1FC;" width="13.64" height="13.64"/>
					<path style="fill:#542C84;" d="M255.409,189.684v13.143h-13.143v-13.143H255.409 M255.905,189.188h-0.496h-13.143h-0.496v0.496
						v13.143v0.496h0.496h13.143h0.496v-0.496v-13.143V189.188L255.905,189.188z"/>
				</g>
				<g>
					<rect x="260.13" y="189.436" style="fill:#D5D1FC;" width="13.64" height="13.64"/>
					<path style="fill:#542C84;" d="M273.522,189.684v13.143h-13.143v-13.143H273.522 M274.018,189.188h-0.496h-13.143h-0.496v0.496
						v13.143v0.496h0.496h13.143h0.496v-0.496v-13.143V189.188L274.018,189.188z"/>
				</g>
				<g>
					<rect x="223.946" y="170.55" style="fill:#D5D1FC;" width="13.64" height="13.64"/>
					<path style="fill:#542C84;" d="M237.338,170.798v13.143h-13.144v-13.143H237.338 M237.834,170.302h-0.496h-13.144h-0.496v0.496
						v13.143v0.496h0.496h13.144h0.496v-0.496v-13.143V170.302L237.834,170.302z"/>
				</g>
				<g>
					<rect x="242.018" y="170.55" style="fill:#D5D1FC;" width="13.64" height="13.64"/>
					<path style="fill:#542C84;" d="M255.409,170.798v13.143h-13.143v-13.143H255.409 M255.905,170.302h-0.496h-13.143h-0.496v0.496
						v13.143v0.496h0.496h13.143h0.496v-0.496v-13.143V170.302L255.905,170.302z"/>
				</g>
				<g>
					<rect x="260.13" y="170.55" style="fill:#D5D1FC;" width="13.64" height="13.64"/>
					<path style="fill:#542C84;" d="M273.522,170.798v13.143h-13.143v-13.143H273.522 M274.018,170.302h-0.496h-13.143h-0.496v0.496
						v13.143v0.496h0.496h13.143h0.496v-0.496v-13.143V170.302L274.018,170.302z"/>
				</g>
				<g>
					<rect x="223.946" y="151.665" style="fill:#D5D1FC;" width="13.64" height="13.64"/>
					<path style="fill:#542C84;" d="M237.338,151.913v13.144h-13.144v-13.144H237.338 M237.834,151.417h-0.496h-13.144h-0.496v0.496
						v13.144v0.496h0.496h13.144h0.496v-0.496v-13.144V151.417L237.834,151.417z"/>
				</g>
				<g>
					<rect x="242.018" y="151.665" style="fill:#D5D1FC;" width="13.64" height="13.64"/>
					<path style="fill:#542C84;" d="M255.409,151.913v13.144h-13.143v-13.144H255.409 M255.905,151.417h-0.496h-13.143h-0.496v0.496
						v13.144v0.496h0.496h13.143h0.496v-0.496v-13.144V151.417L255.905,151.417z"/>
				</g>
				<g>
					<polygon style="fill:#D5D1FC;" points="260.13,165.304 260.13,151.314 274.12,165.304 					"/>
					<path style="fill:#542C84;" d="M260.378,151.913l13.143,13.144h-13.143V151.913 M259.882,150.715v1.198v13.144v0.496h0.496
						h13.143h1.198l-0.847-0.847l-13.143-13.143L259.882,150.715L259.882,150.715z"/>
				</g>
				<g>
					<rect x="223.946" y="132.779" style="fill:#D5D1FC;" width="13.64" height="13.64"/>
					<path style="fill:#542C84;" d="M237.338,133.027v13.143h-13.144v-13.143H237.338 M237.834,132.531h-0.496h-13.144h-0.496v0.496
						v13.143v0.496h0.496h13.144h0.496v-0.496v-13.143V132.531L237.834,132.531z"/>
				</g>
				<g>
					<polygon style="fill:#D5D1FC;" points="242.018,146.419 242.018,132.428 256.008,146.419 					"/>
					<path style="fill:#542C84;" d="M242.266,133.027l13.143,13.143h-13.143V133.027 M241.769,131.829v1.198v13.143v0.496h0.496
						h13.143h1.198l-0.847-0.847l-13.143-13.143L241.769,131.829L241.769,131.829z"/>
				</g>
			</g>
			<g>
				<g>
					<path style="fill:#F1F1FF;" d="M108.275,114.518v233.63h32.18V326.55h18.083v21.598h32.18v-233.63H108.275z"/>
				</g>
				<g>
					<g>
						<polygon style="fill:#D5D1FC;" points="138.583,348.393 138.583,324.629 149.239,324.629 149.239,335.425 148.974,335.425 
							149.017,337.902 149.283,337.902 149.239,338.161 149.239,348.393 						"/>
						<path style="fill:#542C84;" d="M148.974,324.895v1.921v8.343c-0.123,0-0.223,0.116-0.223,0.258v2.485
							c0,0.142,0.1,0.258,0.223,0.258v9.968h-3.991h-6.133v-23.233H148.974 M149.505,324.363h-0.532h-10.125h-0.532v0.532v23.233
							v0.532h0.532h6.133h3.991h0.532v-0.532v-9.968v-0.532h-0.223v-1.937h0.223v-0.532v-8.343v-1.921V324.363L149.505,324.363z"/>
					</g>
					<g>
						<polygon style="fill:#D5D1FC;" points="149.756,348.393 149.756,337.972 149.864,337.893 149.868,335.418 149.76,335.337 
							149.756,335.212 149.756,324.629 160.41,324.629 160.41,348.393 						"/>
						<path style="fill:#542C84;" d="M160.144,324.895v23.233h-0.402h-9.721v-10.021c0.063-0.046,0.113-0.113,0.113-0.205v-2.485
							c0-0.092-0.049-0.159-0.113-0.205v-8.396v-1.921H160.144 M160.676,324.363h-0.532h-10.123h-0.532v0.532v1.921v8.396v0.272
							l0.113,0.081v2.188l-0.113,0.082v0.272v10.021v0.532h0.532h9.721h0.402h0.532v-0.532v-23.233V324.363L160.676,324.363z"/>
					</g>
					<path style="fill:#FFDA7E;" d="M148.751,335.417v2.485c0,0.142,0.1,0.258,0.223,0.258c0.122,0,0.223-0.116,0.223-0.258v-2.485
						c0-0.142-0.1-0.258-0.223-0.258C148.851,335.159,148.751,335.275,148.751,335.417z"/>
					<path style="fill:#FFDA7E;" d="M150.134,337.902v-2.485c0-0.092-0.049-0.159-0.113-0.205c-0.034-0.024-0.067-0.053-0.11-0.053
						c-0.122,0-0.223,0.116-0.223,0.258v2.485c0,0.142,0.1,0.258,0.223,0.258c0.043,0,0.076-0.028,0.11-0.053
						C150.085,338.061,150.134,337.994,150.134,337.902z"/>
				</g>
				
					<rect x="114.82" y="305.798" style="fill:#D5D1FC;stroke:#542C84;stroke-width:0.4963;stroke-miterlimit:10;" width="18.25" height="10.75"/>
				
					<rect x="141.97" y="305.798" style="fill:#D5D1FC;stroke:#542C84;stroke-width:0.4963;stroke-miterlimit:10;" width="15.94" height="10.75"/>
				
					<rect x="166.81" y="305.798" style="fill:#D5D1FC;stroke:#542C84;stroke-width:0.4963;stroke-miterlimit:10;" width="17.37" height="10.75"/>
				
					<rect x="114.82" y="323.921" style="fill:#D5D1FC;stroke:#542C84;stroke-width:0.7447;stroke-miterlimit:10;" width="18.25" height="24.207"/>
				
					<rect x="166.81" y="323.921" style="fill:#D5D1FC;stroke:#542C84;stroke-width:0.7447;stroke-miterlimit:10;" width="17.37" height="24.207"/>
				
					<rect x="114.82" y="289.068" style="fill:#D5D1FC;stroke:#542C84;stroke-width:0.4963;stroke-miterlimit:10;" width="18.25" height="10.74"/>
				
					<rect x="141.97" y="289.068" style="fill:#D5D1FC;stroke:#542C84;stroke-width:0.4963;stroke-miterlimit:10;" width="15.94" height="10.74"/>
				
					<rect x="166.81" y="289.068" style="fill:#D5D1FC;stroke:#542C84;stroke-width:0.4963;stroke-miterlimit:10;" width="17.37" height="10.74"/>
				
					<rect x="114.82" y="272.328" style="fill:#D5D1FC;stroke:#542C84;stroke-width:0.4963;stroke-miterlimit:10;" width="18.25" height="10.75"/>
				
					<rect x="141.97" y="272.328" style="fill:#D5D1FC;stroke:#542C84;stroke-width:0.4963;stroke-miterlimit:10;" width="15.94" height="10.75"/>
				
					<rect x="166.81" y="272.328" style="fill:#D5D1FC;stroke:#542C84;stroke-width:0.4963;stroke-miterlimit:10;" width="17.37" height="10.75"/>
				
					<rect x="114.82" y="255.588" style="fill:#D5D1FC;stroke:#542C84;stroke-width:0.4963;stroke-miterlimit:10;" width="18.25" height="10.75"/>
				
					<rect x="141.97" y="255.588" style="fill:#D5D1FC;stroke:#542C84;stroke-width:0.4963;stroke-miterlimit:10;" width="15.94" height="10.75"/>
				
					<rect x="166.81" y="255.588" style="fill:#D5D1FC;stroke:#542C84;stroke-width:0.4963;stroke-miterlimit:10;" width="17.37" height="10.75"/>
				
					<rect x="114.82" y="238.858" style="fill:#D5D1FC;stroke:#542C84;stroke-width:0.4963;stroke-miterlimit:10;" width="18.25" height="10.75"/>
				
					<rect x="141.97" y="238.858" style="fill:#D5D1FC;stroke:#542C84;stroke-width:0.4963;stroke-miterlimit:10;" width="15.94" height="10.75"/>
				
					<rect x="166.81" y="238.858" style="fill:#D5D1FC;stroke:#542C84;stroke-width:0.4963;stroke-miterlimit:10;" width="17.37" height="10.75"/>
				
					<rect x="114.82" y="222.118" style="fill:#D5D1FC;stroke:#542C84;stroke-width:0.4963;stroke-miterlimit:10;" width="18.25" height="10.75"/>
				
					<rect x="141.97" y="222.118" style="fill:#D5D1FC;stroke:#542C84;stroke-width:0.4963;stroke-miterlimit:10;" width="15.94" height="10.75"/>
				
					<rect x="166.81" y="222.118" style="fill:#D5D1FC;stroke:#542C84;stroke-width:0.4963;stroke-miterlimit:10;" width="17.37" height="10.75"/>
				
					<rect x="114.82" y="205.388" style="fill:#D5D1FC;stroke:#542C84;stroke-width:0.4963;stroke-miterlimit:10;" width="18.25" height="10.74"/>
				
					<rect x="141.97" y="205.388" style="fill:#D5D1FC;stroke:#542C84;stroke-width:0.4963;stroke-miterlimit:10;" width="15.94" height="10.74"/>
				
					<rect x="166.81" y="205.388" style="fill:#D5D1FC;stroke:#542C84;stroke-width:0.4963;stroke-miterlimit:10;" width="17.37" height="10.74"/>
				
					<rect x="114.82" y="188.648" style="fill:#D5D1FC;stroke:#542C84;stroke-width:0.4963;stroke-miterlimit:10;" width="18.25" height="10.75"/>
				
					<rect x="141.97" y="188.648" style="fill:#D5D1FC;stroke:#542C84;stroke-width:0.4963;stroke-miterlimit:10;" width="15.94" height="10.75"/>
				
					<rect x="166.81" y="188.648" style="fill:#D5D1FC;stroke:#542C84;stroke-width:0.4963;stroke-miterlimit:10;" width="17.37" height="10.75"/>
				
					<rect x="114.82" y="171.908" style="fill:#D5D1FC;stroke:#542C84;stroke-width:0.4963;stroke-miterlimit:10;" width="18.25" height="10.75"/>
				
					<rect x="141.97" y="171.908" style="fill:#D5D1FC;stroke:#542C84;stroke-width:0.4963;stroke-miterlimit:10;" width="15.94" height="10.75"/>
				
					<rect x="166.81" y="171.908" style="fill:#D5D1FC;stroke:#542C84;stroke-width:0.4963;stroke-miterlimit:10;" width="17.37" height="10.75"/>
				
					<rect x="114.82" y="155.178" style="fill:#D5D1FC;stroke:#542C84;stroke-width:0.4963;stroke-miterlimit:10;" width="18.25" height="10.75"/>
				
					<rect x="141.97" y="155.178" style="fill:#D5D1FC;stroke:#542C84;stroke-width:0.4963;stroke-miterlimit:10;" width="15.94" height="10.75"/>
				
					<rect x="166.81" y="155.178" style="fill:#D5D1FC;stroke:#542C84;stroke-width:0.4963;stroke-miterlimit:10;" width="17.37" height="10.75"/>
				
					<rect x="114.82" y="138.438" style="fill:#D5D1FC;stroke:#542C84;stroke-width:0.4963;stroke-miterlimit:10;" width="18.25" height="10.75"/>
				
					<rect x="141.97" y="138.438" style="fill:#D5D1FC;stroke:#542C84;stroke-width:0.4963;stroke-miterlimit:10;" width="15.94" height="10.75"/>
				
					<rect x="166.81" y="138.438" style="fill:#D5D1FC;stroke:#542C84;stroke-width:0.4963;stroke-miterlimit:10;" width="17.37" height="10.75"/>
				
					<rect x="114.82" y="121.708" style="fill:#D5D1FC;stroke:#542C84;stroke-width:0.4963;stroke-miterlimit:10;" width="18.25" height="10.75"/>
				
					<rect x="141.97" y="121.708" style="fill:#D5D1FC;stroke:#542C84;stroke-width:0.4963;stroke-miterlimit:10;" width="15.94" height="10.75"/>
				
					<rect x="166.81" y="121.708" style="fill:#D5D1FC;stroke:#542C84;stroke-width:0.4963;stroke-miterlimit:10;" width="17.37" height="10.75"/>
			</g>
		</g>
		<g>
			<path style="fill:#574382;" d="M453.448,351.724H46.552c-0.995,0-1.802-0.807-1.802-1.803l0,0c0-0.995,0.807-1.802,1.802-1.802
				h406.895c0.996,0,1.803,0.807,1.803,1.802l0,0C455.25,350.917,454.443,351.724,453.448,351.724z"/>
			<g>
				<g>
					<g>
						<g>
							<path style="fill:#968FE8;" d="M394.436,287.629c-1.12-3.888-3.234-7.424-7.433-7.719c-3.486-0.245-6.66,2.413-8.791,4.889
								c-7.15,8.31-8.357,20.431-7.64,30.994c0.456,6.718,3.068,15.083,11.464,14.339c7.032-0.623,10.013-7.552,11.486-13.518
								c1.783-7.219,2.824-14.736,2.099-22.172C395.428,292.47,395.115,289.985,394.436,287.629z"/>
						</g>
					</g>
					<g>
						<g>
							<g>
								<path style="fill:#4D1E84;" d="M382.309,288.518c0.103,20.038,0.205,40.077,0.308,60.115c0.007,1.287,2.007,1.289,2,0
									c-0.103-20.038-0.205-40.077-0.308-60.115C384.303,287.231,382.303,287.229,382.309,288.518L382.309,288.518z"/>
							</g>
						</g>
						<g>
							<g>
								<path style="fill:#4D1E84;" d="M374.351,318.719c1.701,3.56,4.738,5.831,8.791,5.632c1.281-0.063,1.289-2.063,0-2
									c-3.382,0.166-5.659-1.702-7.064-4.642C375.523,316.549,373.798,317.562,374.351,318.719L374.351,318.719z"/>
							</g>
						</g>
						<g>
							<g>
								<path style="fill:#4D1E84;" d="M383.967,319.024c3.53,0.052,6.43-4.732,6.517-7.849c0.036-1.287-1.964-1.286-2,0
									c-0.056,1.993-2.152,5.885-4.517,5.849C382.679,317.005,382.679,319.005,383.967,319.024L383.967,319.024z"/>
							</g>
						</g>
						<g>
							<g>
								<path style="fill:#4D1E84;" d="M375.356,309.906c0.318,3.387,4.702,5.95,7.849,5.947c1.287-0.001,1.289-2.001,0-2
									c-1.907,0.002-5.642-1.74-5.849-3.947C377.237,308.636,375.235,308.623,375.356,309.906L375.356,309.906z"/>
							</g>
						</g>
						<g>
							<g>
								<path style="fill:#4D1E84;" d="M384.03,306.086c1.41,0.045,2.659-0.926,3.58-1.907c0.85-0.906,1.686-2.006,1.796-3.279
									c0.111-1.282-1.889-1.275-2,0c-0.058,0.664-0.778,1.403-1.211,1.864c-0.548,0.584-1.31,1.348-2.165,1.321
									C382.743,304.046,382.744,306.046,384.03,306.086L384.03,306.086z"/>
							</g>
						</g>
						<g>
							<g>
								<path style="fill:#4D1E84;" d="M378.473,296.648c0.622,1.355,0.786,2.706,2.071,3.626c0.847,0.607,2.174,1.242,3.166,0.601
									c1.077-0.696,0.076-2.428-1.009-1.727c0.033-0.021-0.338-0.125-0.461-0.182c-0.299-0.14-0.612-0.328-0.849-0.562
									c-0.6-0.593-0.807-1.929-1.19-2.766C379.664,294.471,377.94,295.486,378.473,296.648L378.473,296.648z"/>
							</g>
						</g>
					</g>
				</g>
				<g>
					<g>
						<path style="fill:#E6E6FF;" d="M409.448,261.577c0-1.308-0.117-2.724-0.12-4.12c-0.005-2.911,4.397-3.123,4.635-0.221
							c0.052,0.64,0.06,1.312,0.047,1.978c-0.03,1.537,1.449,2.698,2.925,2.267c4.711-1.378,3.991,5.495,2.557,11.182
							c-0.414,1.641,1.023,3.012,2.695,2.753c1.515-0.235,2.83,0.667,3.418,3.513c0.441,2.131-0.013,4.159-0.835,6.038
							c-0.64,1.464,0.463,3.09,2.058,3.178c6.793,0.373,4.814,7.494,1.128,13.265c-0.839,1.314-0.3,3.152,1.196,3.591
							c0.903,0.265,1.496,0.951,1.963,2.565c0.695,2.404-4.398,4.434-4.896,6.743c-1.116,5.179,0.123,11.626-4.102,15.026
							c-10.659,8.579-24.17-3.901-29.277-12.927c-1.693-2.992-2.982-6.317-2.493-9.838c0.432-3.113,4.396-7.881,6.871-3.231
							c-2.005-2.92-4.722-7.872-4.664-11.463c0.034-2.132,2.154-4.682,4.096-5.081c1.313-0.27,2.033-1.715,1.627-2.992
							c-0.707-2.225-1.389-4.499-0.958-6.82c0.884-4.758,6.497-4.396,7.39,0.202c-1.34-3.116-2.922-9.251-1.891-12.678
							c1.518-5.041,6.37-5.406,5.894,0.009"/>
					</g>
					<g>
						<g>
							<g>
								<path style="fill:#4D1E84;" d="M410.611,268.754c0.136,26.509,0.271,53.018,0.407,79.526c0.007,1.287,2.007,1.289,2,0
									c-0.136-26.509-0.271-53.018-0.407-79.526C412.605,267.467,410.605,267.465,410.611,268.754L410.611,268.754z"/>
							</g>
						</g>
						<g>
							<g>
								<path style="fill:#4D1E84;" d="M412.061,322.715c2.571-0.127,4.8-1.469,6.409-3.455c0.811-1,1.315-2.168,1.868-3.318
									c0.406-0.844,0.912-1.737,0.861-2.701c-0.068-1.28-2.068-1.288-2,0c0.065,1.23-1.291,3.369-1.967,4.348
									c-1.178,1.707-3.075,3.022-5.172,3.126C410.78,320.778,410.773,322.779,412.061,322.715L412.061,322.715z"/>
							</g>
						</g>
						<g>
							<g>
								<path style="fill:#4D1E84;" d="M400.039,308.544c2.205,4.615,6.093,7.548,11.351,7.291c1.281-0.063,1.289-2.063,0-2
									c-4.58,0.224-7.72-2.315-9.624-6.301C401.212,306.374,399.487,307.387,400.039,308.544L400.039,308.544z"/>
							</g>
						</g>
						<g>
							<g>
								<path style="fill:#4D1E84;" d="M412.481,308.788c4.487,0.066,8.189-6.113,8.299-10.061c0.036-1.287-1.964-1.286-2,0
									c-0.079,2.816-2.982,8.11-6.299,8.061C411.193,306.768,411.193,308.768,412.481,308.788L412.481,308.788z"/>
							</g>
						</g>
						<g>
							<g>
								<path style="fill:#4D1E84;" d="M401.413,297.048c0.404,4.298,6.092,7.548,10.061,7.544c1.287-0.001,1.289-2.001,0-2
									c-2.722,0.003-7.769-2.434-8.061-5.544C403.294,295.778,401.292,295.766,401.413,297.048L401.413,297.048z"/>
							</g>
						</g>
						<g>
							<g>
								<path style="fill:#4D1E84;" d="M412.565,291.672c1.779,0.056,3.348-1.192,4.507-2.428c1.059-1.13,2.144-2.519,2.282-4.109
									c0.111-1.282-1.889-1.275-2,0c-0.085,0.981-1.056,2.012-1.696,2.695c-0.786,0.839-1.868,1.881-3.093,1.843
									C411.277,289.631,411.279,291.632,412.565,291.672L412.565,291.672z"/>
							</g>
						</g>
						<g>
							<g>
								<path style="fill:#4D1E84;" d="M405.493,279.347c0.791,1.725,0.99,3.507,2.624,4.681c1.018,0.732,2.656,1.575,3.862,0.795
									c1.077-0.696,0.076-2.428-1.009-1.727c-0.473,0.305-1.803-0.711-2.124-1.035c-0.909-0.915-1.097-2.573-1.625-3.724
									C406.684,277.169,404.959,278.184,405.493,279.347L405.493,279.347z"/>
							</g>
						</g>
					</g>
				</g>
				<g>
					<g>
						<g>
							<path style="fill:#968FE8;" d="M446.082,287.629c-1.12-3.888-3.234-7.424-7.433-7.719c-3.486-0.245-6.66,2.413-8.791,4.889
								c-7.15,8.31-8.357,20.431-7.64,30.994c0.456,6.718,3.068,15.083,11.464,14.339c7.032-0.623,10.013-7.552,11.486-13.518
								c1.783-7.219,2.824-14.736,2.099-22.172C447.075,292.47,446.761,289.985,446.082,287.629z"/>
						</g>
					</g>
					<g>
						<g>
							<g>
								<path style="fill:#4D1E84;" d="M433.955,288.518c0.103,20.038,0.205,40.077,0.307,60.115c0.007,1.287,2.007,1.289,2,0
									c-0.103-20.038-0.205-40.077-0.307-60.115C435.949,287.231,433.949,287.229,433.955,288.518L433.955,288.518z"/>
							</g>
						</g>
						<g>
							<g>
								<path style="fill:#4D1E84;" d="M425.997,318.719c1.701,3.56,4.738,5.831,8.791,5.632c1.281-0.063,1.289-2.063,0-2
									c-3.382,0.166-5.659-1.702-7.064-4.642C427.169,316.549,425.444,317.562,425.997,318.719L425.997,318.719z"/>
							</g>
						</g>
						<g>
							<g>
								<path style="fill:#4D1E84;" d="M435.613,319.024c3.53,0.052,6.43-4.732,6.518-7.849c0.036-1.287-1.964-1.286-2,0
									c-0.056,1.993-2.152,5.885-4.518,5.849C434.325,317.005,434.325,319.005,435.613,319.024L435.613,319.024z"/>
							</g>
						</g>
						<g>
							<g>
								<path style="fill:#4D1E84;" d="M427.002,309.906c0.318,3.387,4.702,5.95,7.849,5.947c1.287-0.001,1.289-2.001,0-2
									c-1.907,0.002-5.642-1.74-5.849-3.947C428.883,308.636,426.882,308.623,427.002,309.906L427.002,309.906z"/>
							</g>
						</g>
						<g>
							<g>
								<path style="fill:#4D1E84;" d="M435.676,306.086c1.41,0.045,2.659-0.926,3.58-1.907c0.85-0.906,1.686-2.006,1.796-3.279
									c0.111-1.282-1.889-1.275-2,0c-0.058,0.664-0.778,1.403-1.211,1.864c-0.548,0.584-1.309,1.348-2.165,1.321
									C434.389,304.046,434.39,306.046,435.676,306.086L435.676,306.086z"/>
							</g>
						</g>
						<g>
							<g>
								<path style="fill:#4D1E84;" d="M430.119,296.648c0.622,1.355,0.786,2.706,2.071,3.626c0.847,0.607,2.174,1.242,3.166,0.601
									c1.077-0.696,0.076-2.428-1.009-1.727c0.033-0.022-0.338-0.125-0.461-0.182c-0.299-0.14-0.612-0.328-0.849-0.562
									c-0.6-0.593-0.807-1.929-1.19-2.766C431.311,294.471,429.586,295.486,430.119,296.648L430.119,296.648z"/>
							</g>
						</g>
					</g>
				</g>
			</g>
			<g>
				<g>
					<g>
						<g>
							<path style="fill:#968FE8;" d="M61.313,306.609c-0.772-2.678-2.228-5.114-5.121-5.318c-2.401-0.169-4.588,1.662-6.056,3.368
								c-4.925,5.724-5.757,14.074-5.263,21.351c0.314,4.628,2.114,10.39,7.897,9.878c4.844-0.429,6.897-5.202,7.912-9.312
								c1.228-4.973,1.945-10.151,1.446-15.273C61.997,309.944,61.781,308.232,61.313,306.609z"/>
						</g>
					</g>
					<g>
						<g>
							<g>
								<path style="fill:#4D1E84;" d="M52.649,307.222c0.071,13.804,0.141,27.608,0.212,41.411c0.007,1.287,2.007,1.289,2,0
									c-0.071-13.804-0.141-27.607-0.212-41.411C54.642,305.935,52.642,305.933,52.649,307.222L52.649,307.222z"/>
							</g>
						</g>
						<g>
							<g>
								<path style="fill:#4D1E84;" d="M47.209,328.183c1.215,2.544,3.432,4.176,6.324,4.034c1.281-0.063,1.289-2.063,0-2
									c-2.228,0.109-3.674-1.11-4.597-3.043C48.381,326.013,46.656,327.026,47.209,328.183L47.209,328.183z"/>
							</g>
						</g>
						<g>
							<g>
								<path style="fill:#4D1E84;" d="M54.101,328.547c2.608,0.039,4.736-3.401,4.801-5.718c0.036-1.287-1.964-1.286-2,0
									c-0.034,1.202-1.356,3.74-2.801,3.718C52.814,326.529,52.814,328.529,54.101,328.547L54.101,328.547z"/>
							</g>
						</g>
						<g>
							<g>
								<path style="fill:#4D1E84;" d="M47.859,321.955c0.235,2.508,3.363,4.41,5.718,4.408c1.287-0.001,1.289-2.001,0-2
									c-1.121,0.001-3.593-1.075-3.718-2.408C49.74,320.685,47.738,320.672,47.859,321.955L47.859,321.955z"/>
							</g>
						</g>
						<g>
							<g>
								<path style="fill:#4D1E84;" d="M54.145,319.635c1.807,0.057,3.864-2.148,4.014-3.883c0.111-1.282-1.889-1.275-2,0
									c-0.025,0.288-0.503,0.809-0.743,1.064c-0.317,0.338-0.775,0.835-1.272,0.819C52.858,317.595,52.859,319.595,54.145,319.635
									L54.145,319.635z"/>
							</g>
						</g>
						<g>
							<g>
								<path style="fill:#4D1E84;" d="M50.049,312.98c0.241,0.525,0.349,1.097,0.619,1.613c0.222,0.423,0.535,0.721,0.919,0.997
									c0.677,0.487,1.715,0.919,2.495,0.414c1.077-0.696,0.076-2.428-1.009-1.727c0.119-0.077,0.245,0.01,0.199-0.053
									c-0.029-0.04-0.168-0.057-0.203-0.073c-0.206-0.093-0.425-0.251-0.522-0.338c-0.174-0.158,0.1,0.253-0.109-0.147
									c-0.076-0.145-0.133-0.283-0.188-0.436c-0.151-0.426-0.286-0.847-0.475-1.259c-0.225-0.491-0.935-0.612-1.368-0.359
									C49.903,311.906,49.823,312.487,50.049,312.98L50.049,312.98z"/>
							</g>
						</g>
					</g>
				</g>
				<g>
					<g>
						<path style="fill:#E6E6FF;" d="M71.655,288.663c0-0.901-0.081-1.877-0.083-2.838c-0.003-2.005,3.029-2.151,3.193-0.152
							c0.036,0.441,0.041,0.904,0.032,1.362c-0.021,1.059,0.998,1.859,2.015,1.561c3.245-0.949,2.749,3.785,1.761,7.703
							c-0.285,1.13,0.705,2.075,1.857,1.897c1.044-0.162,1.95,0.46,2.355,2.42c0.304,1.468-0.009,2.865-0.575,4.159
							c-0.441,1.008,0.319,2.129,1.418,2.189c4.679,0.257,3.316,5.162,0.777,9.138c-0.578,0.905-0.207,2.171,0.824,2.474
							c0.622,0.183,1.03,0.655,1.352,1.767c0.479,1.656-3.03,3.055-3.372,4.645c-0.768,3.567,0.085,8.009-2.826,10.351
							c-7.342,5.91-16.65-2.687-20.168-8.905c-1.166-2.061-2.054-4.351-1.717-6.777c0.298-2.145,3.028-5.429,4.733-2.226
							c-1.381-2.011-3.253-5.423-3.213-7.897c0.023-1.469,1.484-3.225,2.822-3.5c0.904-0.186,1.401-1.181,1.121-2.061
							c-0.487-1.533-0.957-3.099-0.66-4.698c0.609-3.278,4.475-3.029,5.091,0.139c-0.923-2.147-2.013-6.373-1.302-8.733
							c1.046-3.473,4.388-3.724,4.06,0.006"/>
					</g>
					<g>
						<g>
							<g>
								<path style="fill:#4D1E84;" d="M72.145,293.607c0.093,18.261,0.187,36.522,0.28,54.783c0.007,1.287,2.007,1.289,2,0
									c-0.093-18.261-0.187-36.522-0.28-54.783C74.138,292.321,72.138,292.318,72.145,293.607L72.145,293.607z"/>
							</g>
						</g>
						<g>
							<g>
								<path style="fill:#4D1E84;" d="M73.455,331.09c1.856-0.092,3.466-1.042,4.635-2.471c0.58-0.709,0.943-1.53,1.336-2.349
									c0.303-0.631,0.674-1.297,0.636-2.018c-0.068-1.28-2.068-1.288-2,0c0.042,0.785-0.881,2.219-1.312,2.838
									c-0.753,1.08-1.96,1.934-3.294,1.999C72.174,329.153,72.166,331.154,73.455,331.09L73.455,331.09z"/>
							</g>
						</g>
						<g>
							<g>
								<path style="fill:#4D1E84;" d="M64.905,321.174c1.563,3.271,4.366,5.359,8.088,5.177c1.281-0.063,1.289-2.063,0-2
									c-3.053,0.149-5.093-1.533-6.361-4.186C66.077,319.004,64.352,320.017,64.905,321.174L64.905,321.174z"/>
							</g>
						</g>
						<g>
							<g>
								<path style="fill:#4D1E84;" d="M73.744,321.496c3.267,0.048,5.947-4.352,6.028-7.242c0.036-1.287-1.964-1.286-2,0
									c-0.05,1.768-1.925,5.273-4.028,5.242C72.456,319.477,72.456,321.477,73.744,321.496L73.744,321.496z"/>
							</g>
						</g>
						<g>
							<g>
								<path style="fill:#4D1E84;" d="M65.808,313.098c0.295,3.136,4.32,5.511,7.242,5.508c1.287-0.001,1.289-2.001,0-2
									c-1.683,0.002-5.058-1.55-5.242-3.508C67.689,311.828,65.688,311.815,65.808,313.098L65.808,313.098z"/>
							</g>
						</g>
						<g>
							<g>
								<path style="fill:#4D1E84;" d="M73.802,309.706c2.204,0.07,4.803-2.689,4.988-4.815c0.111-1.282-1.889-1.275-2,0
									c-0.05,0.577-0.701,1.236-1.077,1.636c-0.482,0.514-1.156,1.202-1.91,1.178C72.514,307.665,72.516,309.665,73.802,309.706
									L73.802,309.706z"/>
							</g>
						</g>
						<g>
							<g>
								<path style="fill:#4D1E84;" d="M68.661,301.061c0.575,1.253,0.73,2.486,1.919,3.336c0.8,0.572,2.042,1.151,2.975,0.548
									c1.077-0.696,0.076-2.428-1.009-1.727c0.136-0.088-0.176-0.094-0.331-0.166c-0.268-0.125-0.54-0.292-0.756-0.498
									c-0.167-0.16-0.35-0.562-0.475-0.914c-0.191-0.537-0.357-1.069-0.596-1.589C69.853,298.883,68.128,299.898,68.661,301.061
									L68.661,301.061z"/>
							</g>
						</g>
					</g>
				</g>
				<g>
					<g>
						<g>
							<path style="fill:#968FE8;" d="M96.891,306.609c-0.772-2.678-2.228-5.114-5.121-5.318c-2.401-0.169-4.588,1.662-6.056,3.368
								c-4.925,5.724-5.757,14.074-5.263,21.351c0.314,4.628,2.114,10.39,7.897,9.878c4.844-0.429,6.897-5.202,7.912-9.312
								c1.228-4.973,1.945-10.151,1.446-15.273C97.574,309.944,97.358,308.232,96.891,306.609z"/>
						</g>
					</g>
					<g>
						<g>
							<g>
								<path style="fill:#4D1E84;" d="M88.226,307.222c0.071,13.804,0.141,27.608,0.212,41.411c0.007,1.287,2.007,1.289,2,0
									c-0.071-13.804-0.141-27.607-0.212-41.411C90.219,305.935,88.219,305.933,88.226,307.222L88.226,307.222z"/>
							</g>
						</g>
						<g>
							<g>
								<path style="fill:#4D1E84;" d="M82.786,328.183c1.215,2.544,3.432,4.176,6.324,4.034c1.281-0.063,1.289-2.063,0-2
									c-2.228,0.109-3.674-1.11-4.597-3.043C83.959,326.013,82.234,327.026,82.786,328.183L82.786,328.183z"/>
							</g>
						</g>
						<g>
							<g>
								<path style="fill:#4D1E84;" d="M89.679,328.547c2.608,0.039,4.736-3.401,4.801-5.718c0.036-1.287-1.964-1.286-2,0
									c-0.034,1.202-1.355,3.74-2.801,3.718C88.391,326.529,88.391,328.529,89.679,328.547L89.679,328.547z"/>
							</g>
						</g>
						<g>
							<g>
								<path style="fill:#4D1E84;" d="M83.436,321.955c0.235,2.508,3.363,4.41,5.718,4.408c1.287-0.001,1.289-2.001,0-2
									c-1.121,0.001-3.593-1.075-3.718-2.408C85.317,320.685,83.316,320.672,83.436,321.955L83.436,321.955z"/>
							</g>
						</g>
						<g>
							<g>
								<path style="fill:#4D1E84;" d="M89.722,319.635c1.807,0.057,3.864-2.148,4.014-3.883c0.111-1.282-1.889-1.275-2,0
									c-0.025,0.288-0.503,0.809-0.743,1.064c-0.317,0.338-0.775,0.835-1.272,0.819C88.435,317.595,88.436,319.595,89.722,319.635
									L89.722,319.635z"/>
							</g>
						</g>
						<g>
							<g>
								<path style="fill:#4D1E84;" d="M85.626,312.98c0.241,0.525,0.349,1.097,0.619,1.613c0.222,0.423,0.535,0.721,0.919,0.997
									c0.677,0.487,1.715,0.919,2.495,0.414c1.077-0.696,0.076-2.428-1.009-1.727c0.119-0.077,0.245,0.01,0.199-0.053
									c-0.029-0.04-0.168-0.057-0.203-0.073c-0.205-0.093-0.425-0.251-0.522-0.338c-0.174-0.158,0.1,0.253-0.109-0.147
									c-0.076-0.145-0.134-0.283-0.188-0.436c-0.151-0.426-0.286-0.847-0.475-1.259c-0.225-0.491-0.935-0.612-1.368-0.359
									C85.481,311.906,85.4,312.487,85.626,312.98L85.626,312.98z"/>
							</g>
						</g>
					</g>
				</g>
			</g>
			<g>
				<g>
					<g>
						<g>
							<path style="fill:#968FE8;" d="M207.093,304.81c-0.805-2.793-2.323-5.333-5.34-5.545c-2.504-0.176-4.785,1.733-6.315,3.512
								c-5.136,5.969-6.004,14.677-5.488,22.265c0.328,4.826,2.204,10.835,8.235,10.301c5.052-0.447,7.193-5.425,8.251-9.711
								c1.281-5.186,2.029-10.586,1.508-15.927C207.806,308.287,207.581,306.502,207.093,304.81z"/>
						</g>
					</g>
					<g>
						<g>
							<g>
								<path style="fill:#4D1E84;" d="M198.1,305.448c0.074,14.395,0.147,28.79,0.221,43.185c0.007,1.287,2.007,1.289,2,0
									c-0.074-14.395-0.147-28.79-0.221-43.185C200.094,304.162,198.094,304.159,198.1,305.448L198.1,305.448z"/>
							</g>
						</g>
						<g>
							<g>
								<path style="fill:#4D1E84;" d="M192.422,327.286c1.262,2.641,3.556,4.333,6.558,4.186c1.281-0.063,1.289-2.063,0-2
									c-2.338,0.115-3.862-1.166-4.832-3.195C193.594,325.116,191.869,326.129,192.422,327.286L192.422,327.286z"/>
							</g>
						</g>
						<g>
							<g>
								<path style="fill:#4D1E84;" d="M199.573,327.645c2.695,0.04,4.897-3.527,4.964-5.92c0.036-1.287-1.964-1.286-2,0
									c-0.036,1.277-1.431,3.943-2.964,3.92C198.285,325.625,198.285,327.625,199.573,327.645L199.573,327.645z"/>
							</g>
						</g>
						<g>
							<g>
								<path style="fill:#4D1E84;" d="M193.105,320.813c0.243,2.591,3.49,4.556,5.92,4.554c1.287-0.001,1.289-2.001,0-2
									c-1.196,0.001-3.787-1.138-3.92-2.554C194.986,319.542,192.985,319.53,193.105,320.813L193.105,320.813z"/>
							</g>
						</g>
						<g>
							<g>
								<path style="fill:#4D1E84;" d="M199.618,318.35c1.86,0.059,3.988-2.219,4.144-4.007c0.111-1.282-1.889-1.275-2,0
									c-0.03,0.349-0.532,0.868-0.787,1.14c-0.339,0.361-0.826,0.883-1.356,0.867C198.331,316.31,198.332,318.31,199.618,318.35
									L199.618,318.35z"/>
							</g>
						</g>
						<g>
							<g>
								<path style="fill:#4D1E84;" d="M195.383,311.431c0.251,0.547,0.364,1.144,0.646,1.682c0.228,0.434,0.549,0.741,0.943,1.024
									c0.693,0.499,1.758,0.949,2.559,0.432c1.077-0.697,0.076-2.429-1.009-1.727c0.057-0.019,0.115-0.034,0.174-0.043
									c0.075,0.012,0.076,0.01,0.001-0.007c-0.032-0.039-0.171-0.058-0.222-0.08c-0.211-0.094-0.432-0.25-0.553-0.359
									c-0.177-0.16,0.093,0.242-0.12-0.162c-0.081-0.154-0.142-0.303-0.2-0.465c-0.156-0.441-0.295-0.876-0.491-1.303
									c-0.225-0.491-0.935-0.612-1.368-0.359C195.238,310.358,195.157,310.939,195.383,311.431L195.383,311.431z"/>
							</g>
						</g>
					</g>
				</g>
			</g>
			<g>
				<g>
					<g>
						<g>
							<path style="fill:#E6E6FF;" d="M282.729,304.81c0.805-2.793,2.323-5.333,5.34-5.545c2.504-0.176,4.785,1.733,6.315,3.512
								c5.136,5.969,6.003,14.677,5.488,22.265c-0.328,4.826-2.204,10.835-8.235,10.301c-5.052-0.447-7.193-5.425-8.251-9.711
								c-1.281-5.186-2.029-10.586-1.508-15.927C282.016,308.287,282.241,306.502,282.729,304.81z"/>
						</g>
					</g>
					<g>
						<g>
							<g>
								<path style="fill:#4D1E84;" d="M289.722,305.448c-0.074,14.395-0.147,28.79-0.221,43.185c-0.007,1.287,1.993,1.289,2,0
									c0.074-14.395,0.147-28.79,0.221-43.185C291.728,304.161,289.728,304.16,289.722,305.448L289.722,305.448z"/>
							</g>
						</g>
						<g>
							<g>
								<path style="fill:#4D1E84;" d="M295.673,326.276c-0.971,2.032-2.491,3.31-4.831,3.195c-1.287-0.063-1.283,1.937,0,2
									c3.001,0.147,5.297-1.545,6.558-4.186C297.952,326.13,296.228,325.114,295.673,326.276L295.673,326.276z"/>
							</g>
						</g>
						<g>
							<g>
								<path style="fill:#4D1E84;" d="M290.25,325.645c-1.533,0.023-2.928-2.647-2.964-3.92c-0.036-1.284-2.036-1.29-2,0
									c0.067,2.392,2.268,5.96,4.964,5.92C291.535,327.625,291.539,325.625,290.25,325.645L290.25,325.645z"/>
							</g>
						</g>
						<g>
							<g>
								<path style="fill:#4D1E84;" d="M294.717,320.813c-0.133,1.413-2.719,2.555-3.92,2.554c-1.287-0.001-1.289,1.999,0,2
									c2.432,0.003,5.677-1.961,5.92-4.554C296.837,319.532,294.836,319.54,294.717,320.813L294.717,320.813z"/>
							</g>
						</g>
						<g>
							<g>
								<path style="fill:#4D1E84;" d="M290.204,316.35c-0.532,0.017-1.017-0.505-1.356-0.867c-0.255-0.272-0.757-0.791-0.787-1.14
									c-0.111-1.272-2.112-1.284-2,0c0.155,1.788,2.284,4.066,4.143,4.007C291.488,318.31,291.493,316.31,290.204,316.35
									L290.204,316.35z"/>
							</g>
						</g>
						<g>
							<g>
								<path style="fill:#4D1E84;" d="M292.712,310.422c-0.183,0.398-0.323,0.799-0.461,1.213
									c-0.065,0.195-0.138,0.371-0.229,0.555c-0.035,0.057-0.069,0.113-0.104,0.17c0.076-0.099,0.071-0.102-0.016-0.008
									c-0.12,0.104-0.299,0.233-0.495,0.33c-0.061,0.03-0.167,0.055-0.224,0.095c-0.169,0.115-0.03-0.031,0.119,0.065
									c-1.084-0.701-2.088,1.03-1.009,1.727c0.801,0.518,1.865,0.067,2.559-0.432c0.365-0.263,0.673-0.543,0.898-0.938
									c0.317-0.557,0.427-1.192,0.691-1.768c0.225-0.491,0.14-1.077-0.359-1.368C293.65,309.811,292.938,309.929,292.712,310.422
									L292.712,310.422z"/>
							</g>
						</g>
					</g>
				</g>
			</g>
		</g>
	</g>
	<g>
		<g>
			<path style="fill:#BAB3FB;" d="M276.613,417.144H139.297c-0.546,0-0.989-0.443-0.989-0.989l0,0c0-0.546,0.443-0.989,0.989-0.989
				h137.315c0.546,0,0.989,0.443,0.989,0.989l0,0C277.602,416.702,277.159,417.144,276.613,417.144z"/>
			<path style="fill:#BAB3FB;" d="M338.59,417.144h-49.316c-0.546,0-0.989-0.443-0.989-0.989l0,0c0-0.546,0.443-0.989,0.989-0.989
				h49.316V417.144z"/>
		</g>
		<g>
			<g>
				<g>
					<linearGradient id="SVGID_1_" gradientUnits="userSpaceOnUse" x1="255.0223" y1="330.7161" x2="267.0361" y2="330.7161">
						<stop  offset="0.0065" style="stop-color:#FF5DA0"/>
						<stop  offset="0.111" style="stop-color:#FF7997"/>
						<stop  offset="0.2409" style="stop-color:#FF948E"/>
						<stop  offset="0.3822" style="stop-color:#FFA987"/>
						<stop  offset="0.5387" style="stop-color:#FFB882"/>
						<stop  offset="0.7225" style="stop-color:#FFC17F"/>
						<stop  offset="1" style="stop-color:#FFC47E"/>
					</linearGradient>
					<path style="fill:url(#SVGID_1_);" d="M257.569,342.211c-8.675-15.799-12.253-23.009-2.558-24.397
						c0.027-0.015,1.06-0.145,1.094-0.146l3.226,4.706l1.746,17.918C261.949,344.686,258.791,344.413,257.569,342.211z"/>
					<g>
						
							<linearGradient id="SVGID_00000145054351779882350110000008336338962717781907_" gradientUnits="userSpaceOnUse" x1="256.1056" y1="282.7546" x2="310.3281" y2="282.7546">
							<stop  offset="0.002" style="stop-color:#4E3582"/>
							<stop  offset="0.1931" style="stop-color:#543887"/>
							<stop  offset="0.4454" style="stop-color:#643F95"/>
							<stop  offset="0.7305" style="stop-color:#804BAD"/>
							<stop  offset="0.9987" style="stop-color:#A059C9"/>
						</linearGradient>
						<path style="fill:url(#SVGID_00000145054351779882350110000008336338962717781907_);" d="M272.126,243.005
							c0,0,26.539,24.741,36.789,39.226c2.577,3.642,1.518,8.706-2.275,11.054l-47.209,29.219l-3.325-4.836
							c18.07-16.352,27.551-28.178,42.621-32.413c0,0-26.449-12.173-30.681-24.566L272.126,243.005z"/>
					</g>
				</g>
			</g>
			<g>
				<path style="fill:#19105B;" d="M286.507,362.792c-0.122,3.026,0.019,6.082,0.418,9.085l-0.004,0.095l0.044,0.201
					c1.017,7.276,3.506,14.124,7.401,20.353c0.233,0.375,0.477,0.754,0.72,1.127c4.023,6.081,9.147,11.16,15.236,15.107
					c0.418,0.272,0.796,0.517,1.182,0.74c6.891,4.232,14.542,6.747,22.695,7.446c0.439,0.04,0.889,0.073,1.347,0.099
					c0.354,0.021,0.717,0.043,1.079,0.057c10.327,0.415,20.425-2.189,29.201-7.531c0.378-0.224,0.764-0.469,1.15-0.722
					c4.576-2.94,8.661-6.573,12.127-10.786c0.125-0.151,0.235-0.284,0.337-0.418c0.38-0.467,0.793-1.004,1.222-1.586
					c0.129-0.175,0.263-0.353,0.394-0.535l0.054,0.02l0.814-1.255l0.598-0.855l-0.026-0.017c0.013-0.018,0.024-0.037,0.036-0.056
					l0.066-0.1c0.483-0.741,0.848-1.325,1.183-1.89c0.349-0.583,0.709-1.223,1.096-1.947c3.603-6.777,5.63-14.116,6.027-21.819
					c0.013-0.174,0.023-0.39,0.032-0.614c0.01-0.256,0.02-0.504,0.023-0.76c0.32-12.012-3.573-23.88-10.964-33.382
					c-0.282-0.361-0.562-0.719-0.857-1.071c-7.221-8.824-17.294-15.129-28.346-17.732c-0.42-0.103-0.86-0.204-1.308-0.297
					c-2.768-0.575-5.57-0.929-8.334-1.055l-0.324-0.013C312.031,311.523,287.665,334.003,286.507,362.792z M320.042,320.706
					l16.73,43.68l-39.037-24.416C302.96,331.413,310.775,324.64,320.042,320.706z M335.949,365.385l-45.161,1.755
					c-0.064-1.393-0.069-2.788-0.014-4.177c0.321-7.97,2.589-15.406,6.311-21.887L335.949,365.385z M348.562,317.921l-10.646,45.834
					l-16.68-43.533c6.002-2.359,12.571-3.55,19.417-3.274l0.313,0.013C343.476,317.074,346.035,317.399,348.562,317.921z
					 M375.844,334.497l-36.724,29.77l10.698-46.062C359.969,320.603,369.203,326.386,375.844,334.497z M386.689,366.152
					c0,0.007,0,0.012,0,0.019l-46.842-0.835l36.803-29.83C383.417,344.221,386.983,355.103,386.689,366.152z M381.109,387.415
					c-0.352,0.659-0.679,1.239-0.998,1.773c-0.354,0.597-0.718,1.171-1.091,1.741l-0.067,0.104
					c-0.116,0.178-0.231,0.356-0.349,0.532l-0.118,0.173c-0.006,0.008-0.012,0.016-0.017,0.024l-38.19-25.127l46.354,0.822
					C386.25,374.536,384.395,381.234,381.109,387.415z M364.651,405.268c-0.006,0.004-0.011,0.007-0.017,0.011l-24.325-37.083
					l37.416,24.618l-0.793,1.104c-0.281,0.372-0.562,0.735-0.851,1.092c-0.106,0.138-0.177,0.222-0.247,0.306
					C372.621,399.22,368.869,402.557,364.651,405.268z M335.799,412.782l2.79-44.862l24.954,38.039
					C355.202,411.013,345.595,413.36,335.799,412.782z M313.712,405.844l23.553-37.414l-2.751,44.255
					C327.049,412.035,320.055,409.735,313.712,405.844z M298.685,391.35l37.337-23.362l-23.4,37.171
					C307.029,401.521,302.356,396.886,298.685,391.35z M291.173,371.426c-0.134-0.993-0.227-1.994-0.299-2.997l44.795-1.744
					l-37.681,23.576c-3.552-5.682-5.83-11.92-6.774-18.548l0.004-0.089L291.173,371.426z"/>
				<path style="fill:#19105B;" d="M136.52,364.892c0,3.028,0.263,6.076,0.783,9.061v0.095l0.052,0.199
					c1.308,7.23,4.071,13.972,8.213,20.039c0.248,0.366,0.507,0.734,0.765,1.097c4.264,5.915,9.588,10.784,15.83,14.482
					c0.429,0.255,0.816,0.485,1.211,0.692c7.055,3.952,14.801,6.157,22.976,6.528c0.44,0.022,0.891,0.038,1.35,0.045
					c0.355,0.007,0.718,0.014,1.08,0.014c10.336,0,20.32-3.008,28.874-8.698c0.369-0.238,0.744-0.499,1.12-0.767
					c4.454-3.122,8.39-6.916,11.683-11.265c0.119-0.156,0.224-0.293,0.32-0.431c0.361-0.482,0.752-1.035,1.157-1.634
					c0.122-0.18,0.248-0.363,0.373-0.55l0.055,0.018l0.763-1.287l0.563-0.878l-0.026-0.016c0.012-0.019,0.023-0.038,0.034-0.057
					l0.062-0.103c0.453-0.76,0.794-1.358,1.106-1.936c0.325-0.596,0.659-1.25,1.017-1.989c3.328-6.916,5.058-14.331,5.145-22.043
					c0.006-0.174,0.007-0.391,0.007-0.615c0-0.256,0-0.504-0.008-0.76c-0.163-12.015-4.53-23.717-12.296-32.914
					c-0.296-0.35-0.59-0.696-0.899-1.036c-7.569-8.527-17.888-14.422-29.036-16.579c-0.424-0.086-0.867-0.169-1.319-0.245
					c-2.788-0.463-5.603-0.705-8.37-0.719h-0.324C159.964,312.639,136.52,336.079,136.52,364.892z M168.337,321.492l18.471,42.973
					l-39.986-22.828C151.699,332.876,159.235,325.795,168.337,321.492z M186.026,365.497l-45.054,3.568
					c-0.12-1.389-0.181-2.783-0.181-4.173c0-7.977,1.968-15.498,5.426-22.123L186.026,365.497z M196.722,317.563l-8.796,46.225
					l-18.416-42.828c5.902-2.598,12.418-4.052,19.27-4.052h0.313C191.606,316.922,194.177,317.143,196.722,317.563z M224.648,333.03
					l-35.498,31.221l8.839-46.454C208.228,319.785,217.687,325.192,224.648,333.03z M236.756,364.224c0,0.007,0,0.012,0,0.018
					l-46.837,1.048l35.575-31.284C232.606,342.442,236.606,353.172,236.756,364.224z M232.035,385.694
					c-0.325,0.672-0.629,1.266-0.926,1.811c-0.329,0.611-0.671,1.199-1.02,1.783l-0.063,0.106c-0.108,0.182-0.217,0.365-0.327,0.546
					l-0.111,0.178c-0.005,0.008-0.011,0.017-0.016,0.025l-39.169-23.572l46.35-1.041
					C236.654,372.618,235.07,379.386,232.035,385.694z M216.308,404.194c-0.006,0.004-0.011,0.007-0.017,0.011l-25.796-36.076
					l38.374,23.095l-0.748,1.135c-0.265,0.384-0.532,0.757-0.807,1.126c-0.101,0.142-0.168,0.229-0.234,0.316
					C224.029,397.83,220.413,401.315,216.308,404.194z M187.781,412.861l0.985-44.938l26.463,37.005
					C207.098,410.314,197.593,413.045,187.781,412.861z M165.434,406.816l22.03-38.331l-0.971,44.33
					C179.008,412.466,171.927,410.449,165.434,406.816z M149.835,392.937l36.369-24.843l-21.888,38.081
					C158.582,402.765,153.726,398.321,149.835,392.937z M141.529,373.331c-0.174-0.987-0.306-1.983-0.419-2.982l44.688-3.543
					l-36.704,25.071c-3.777-5.535-6.304-11.676-7.514-18.261v-0.089L141.529,373.331z"/>
				<g>
					<g>
						<path style="fill:#FC5F49;" d="M189.207,365.697c-0.644,0.928-0.351,2.208,0.632,2.765l0,0
							c0.311,0.176,0.666,0.262,1.023,0.247l73.845-2.995l49.971-55.074l21.49,57.038l4.096-1.701l-30.339-81.681l17.819-1.455l0,0
							c0-2.199-1.946-3.889-4.123-3.581l-14.79,2.091l-1.193,0.189c-0.254-0.684-0.941-1.106-1.666-1.023l-0.533,0.007
							c-1.026,0.117-1.669,1.168-1.305,2.135l1.305,3.463l-57.556-3.184l-5.196-11.613l-2.437,1.091l5.257,12.101L189.207,365.697z
							 M277.855,347.186l-28.066-60.303l57.13,3.161l6.726,17.851L277.855,347.186z M191.555,366.535l55.107-78.698l29.169,61.57
							L263.35,363.11L191.555,366.535z"/>
						
							<linearGradient id="SVGID_00000039841522778049125040000012667869785280615847_" gradientUnits="userSpaceOnUse" x1="238.6399" y1="371.7216" x2="314.3065" y2="294.7217">
							<stop  offset="0" style="stop-color:#FFC47E"/>
							<stop  offset="0.1652" style="stop-color:#FFBE80"/>
							<stop  offset="0.3833" style="stop-color:#FFAE85"/>
							<stop  offset="0.631" style="stop-color:#FF928E"/>
							<stop  offset="0.8986" style="stop-color:#FF6C9B"/>
							<stop  offset="0.9935" style="stop-color:#FF5DA0"/>
						</linearGradient>
						<path style="fill:url(#SVGID_00000039841522778049125040000012667869785280615847_);" d="M189.207,365.697
							c-0.644,0.928-0.351,2.208,0.632,2.765l0,0c0.311,0.176,0.666,0.262,1.023,0.247l73.845-2.995l49.971-55.074l21.49,57.038
							l4.096-1.701l-30.339-81.681l17.819-1.455l0,0c0-2.199-1.946-3.889-4.123-3.581l-14.79,2.091l-1.193,0.189
							c-0.254-0.684-0.941-1.106-1.666-1.023l-0.533,0.007c-1.026,0.117-1.669,1.168-1.305,2.135l1.305,3.463l-57.556-3.184
							l-5.196-11.613l-2.437,1.091l5.257,12.101L189.207,365.697z M277.855,347.186l-28.066-60.303l57.13,3.161l6.726,17.851
							L277.855,347.186z M191.555,366.535l55.107-78.698l29.169,61.57L263.35,363.11L191.555,366.535z"/>
					</g>
					<g>
						<path style="fill:#19105B;" d="M321.035,301.588L321.035,301.588c0.386,1.181,1.812,1.637,2.819,0.91
							c6.209-4.479,10.028-10.489,11.009-18.316l-6.381-0.394c1.111,6.507-1.401,11.678-6.814,15.779
							C321.048,300.037,320.793,300.848,321.035,301.588z"/>
						<path style="fill:#19105B;" d="M317.524,294.438L317.524,294.438c0.281,0.843,1.307,1.183,2.025,0.659
							c4.481-3.265,7.223-7.629,7.902-13.3l-4.615-0.259c0.831,4.705-0.968,8.456-4.874,11.445
							C317.52,293.322,317.348,293.909,317.524,294.438z"/>
						<path style="fill:#FC5F49;" d="M324.271,279.229l10.592,4.952l0,0c-0.301,2.109-2.085,3.689-4.214,3.734l-2.015,0.043
							l-5.609-3.775v-3.999L324.271,279.229z"/>
					</g>
					<path style="fill:#19105B;" d="M234.461,268.474h21.818c1.505,0,2.357,1.835,1.296,2.902c-0.745,0.749-1.777,1.213-2.918,1.213
						l-3.754,0c-3,0-5.93,0.933-8.378,2.668c-0.372,0.263-0.722,0.513-1.036,0.737c-0.952,0.681-2.091,1.045-3.261,1.045h-1.05
						c-2.004,0-3.826-1.165-4.666-2.985l-0.678-1.741C231.117,270.466,232.48,268.474,234.461,268.474z"/>
				</g>
				<path style="fill:none;stroke:#3C1152;stroke-width:0.8939;stroke-miterlimit:10;" d="M316.326,315.861"/>
				<path style="fill:#EFEEFF;" d="M333.728,365.976c0,2.289,1.855,4.144,4.144,4.144c2.289,0,4.144-1.855,4.144-4.144
					c0-2.289-1.855-4.144-4.144-4.144C335.583,361.831,333.728,363.687,333.728,365.976z"/>
				<g>
					<g>
						<g>
							<g>
								<polygon style="fill:#4A1984;" points="190.038,359.137 253.018,353.108 253.775,350.445 189.792,356.569 								"/>
							</g>
						</g>
						<g>
							<g>
								
									<rect x="220.709" y="344.487" transform="matrix(0.042 -0.9991 0.9991 0.042 -165.6267 584.5073)" style="fill:#4A1984;" width="2.578" height="68.276"/>
							</g>
						</g>
					</g>
					<g>
						<path style="fill:#EFEEFF;" d="M178.91,362.786c-2.566,5.449-0.23,11.947,5.219,14.513c5.449,2.566,11.947,0.23,14.513-5.22
							c2.566-5.449,0.23-11.947-5.219-14.513C187.975,355.001,181.477,357.337,178.91,362.786z"/>
						<g>
							<g>
								<path style="fill:#4A1984;" d="M184.523,367.433c0,2.479,2.01,4.49,4.49,4.49c2.48,0,4.489-2.01,4.489-4.49
									c0-2.48-2.01-4.49-4.489-4.49C186.533,362.944,184.523,364.954,184.523,367.433z"/>
							</g>
						</g>
					</g>
				</g>
				<g>
					<path style="fill:#FFC47E;" d="M247.22,365.541c0,4.061,1.644,7.729,4.306,10.385c0.438,0.432,0.909,0.844,1.399,1.225
						c2.475,1.908,5.576,3.049,8.941,3.049c3.372,0,6.479-1.141,8.948-3.049c0.496-0.38,0.961-0.793,1.399-1.231h0.007
						c2.656-2.656,4.306-6.324,4.306-10.378c0-2.946-0.877-5.699-2.385-8c-0.786-1.206-1.747-2.289-2.849-3.21
						c-2.546-2.147-5.84-3.436-9.424-3.436c-3.584,0-6.872,1.289-9.418,3.436c-1.102,0.922-2.069,2.005-2.849,3.21
						C248.09,359.842,247.22,362.595,247.22,365.541z M268.944,355.163c0,0.064-0.013,0.135-0.013,0.206
						c-0.142,1.392-0.677,2.656-1.483,3.681c-0.348,0.445-0.748,0.851-1.192,1.199c-0.007,0.007-0.007,0.007-0.013,0.007
						c-1.386,1.089-3.178,1.663-5.067,1.476c-1.399-0.135-2.656-0.671-3.681-1.476l-0.013-0.013
						c-0.445-0.348-0.851-0.754-1.193-1.199c-0.857-1.089-1.399-2.437-1.495-3.881c1.908-1.618,4.383-2.585,7.071-2.585
						C264.56,352.577,267.029,353.544,268.944,355.163z M261.55,363.588c1.238,0,2.243,1.006,2.243,2.243
						c0,1.244-1.006,2.25-2.243,2.25c-1.244,0-2.25-1.006-2.25-2.25C259.3,364.593,260.306,363.588,261.55,363.588z
						 M268.518,370.956l-0.007-0.007c-1.076-1.386-1.644-3.165-1.457-5.054c0.135-1.392,0.664-2.649,1.476-3.674
						c0-0.006,0-0.006,0.006-0.013c0.348-0.445,0.748-0.851,1.193-1.199c1.031-0.806,2.282-1.335,3.636-1.47
						c1.135,1.721,1.792,3.79,1.792,6.001c0,1.521-0.309,2.972-0.87,4.293c-0.554,1.315-1.366,2.508-2.366,3.5
						c-0.806-0.251-1.541-0.651-2.185-1.16c-0.007-0.007-0.007-0.013-0.013-0.013C269.273,371.813,268.866,371.407,268.518,370.956z
						 M255.155,376.339c0.258-0.774,0.645-1.476,1.134-2.095c0.355-0.451,0.754-0.851,1.199-1.199
						c1.386-1.089,3.178-1.663,5.073-1.476c1.392,0.135,2.643,0.664,3.668,1.457l0.007,0.007c0.451,0.354,0.851,0.761,1.206,1.205
						c0,0,0.006,0.006,0.013,0.013c0.49,0.625,0.877,1.328,1.134,2.089c-1.857,1.431-4.19,2.288-6.724,2.288
						C259.339,378.627,257.012,377.77,255.155,376.339z M248.883,365.541c0-2.211,0.651-4.28,1.786-6.001
						c1.379,0.142,2.624,0.67,3.636,1.47c0.445,0.348,0.845,0.754,1.193,1.199l0.013,0.013c1.083,1.386,1.663,3.172,1.476,5.067
						c-0.142,1.392-0.671,2.656-1.483,3.681c-0.348,0.451-0.748,0.851-1.199,1.199c-0.645,0.516-1.386,0.915-2.185,1.173
						C250.114,371.349,248.883,368.59,248.883,365.541z"/>
					<g>
						<path style="fill:#4A1984;" d="M247.22,365.541c0,4.061,1.644,7.729,4.306,10.385c0.438,0.432,0.909,0.844,1.399,1.225
							c2.475,1.908,5.576,3.049,8.941,3.049c3.372,0,6.479-1.141,8.948-3.049c0.496-0.38,0.961-0.793,1.399-1.231h0.007
							c2.656-2.656,4.306-6.324,4.306-10.378c0-2.946-0.877-5.699-2.385-8c-0.786-1.206-1.747-2.289-2.849-3.21
							c-2.546-2.147-5.84-3.436-9.424-3.436c-3.584,0-6.872,1.289-9.418,3.436c-1.102,0.922-2.069,2.005-2.849,3.21
							C248.09,359.842,247.22,362.595,247.22,365.541z M268.944,355.163c0,0.064-0.013,0.135-0.013,0.206
							c-0.142,1.392-0.677,2.656-1.483,3.681c-0.348,0.445-0.748,0.851-1.192,1.199c-0.007,0.007-0.007,0.007-0.013,0.007
							c-1.386,1.089-3.178,1.663-5.067,1.476c-1.399-0.135-2.656-0.671-3.681-1.476l-0.013-0.013
							c-0.445-0.348-0.851-0.754-1.193-1.199c-0.857-1.089-1.399-2.437-1.495-3.881c1.908-1.618,4.383-2.585,7.071-2.585
							C264.56,352.577,267.029,353.544,268.944,355.163z M261.55,363.588c1.238,0,2.243,1.006,2.243,2.243
							c0,1.244-1.006,2.25-2.243,2.25c-1.244,0-2.25-1.006-2.25-2.25C259.3,364.593,260.306,363.588,261.55,363.588z
							 M268.518,370.956l-0.007-0.007c-1.076-1.386-1.644-3.165-1.457-5.054c0.135-1.392,0.664-2.649,1.476-3.674
							c0-0.006,0-0.006,0.006-0.013c0.348-0.445,0.748-0.851,1.193-1.199c1.031-0.806,2.282-1.335,3.636-1.47
							c1.135,1.721,1.792,3.79,1.792,6.001c0,1.521-0.309,2.972-0.87,4.293c-0.554,1.315-1.366,2.508-2.366,3.5
							c-0.806-0.251-1.541-0.651-2.185-1.16c-0.007-0.007-0.007-0.013-0.013-0.013C269.273,371.813,268.866,371.407,268.518,370.956
							z M255.155,376.339c0.258-0.774,0.645-1.476,1.134-2.095c0.355-0.451,0.754-0.851,1.199-1.199
							c1.386-1.089,3.178-1.663,5.073-1.476c1.392,0.135,2.643,0.664,3.668,1.457l0.007,0.007c0.451,0.354,0.851,0.761,1.206,1.205
							c0,0,0.006,0.006,0.013,0.013c0.49,0.625,0.877,1.328,1.134,2.089c-1.857,1.431-4.19,2.288-6.724,2.288
							C259.339,378.627,257.012,377.77,255.155,376.339z M248.883,365.541c0-2.211,0.651-4.28,1.786-6.001
							c1.379,0.142,2.624,0.67,3.636,1.47c0.445,0.348,0.845,0.754,1.193,1.199l0.013,0.013c1.083,1.386,1.663,3.172,1.476,5.067
							c-0.142,1.392-0.671,2.656-1.483,3.681c-0.348,0.451-0.748,0.851-1.199,1.199c-0.645,0.516-1.386,0.915-2.185,1.173
							C250.114,371.349,248.883,368.59,248.883,365.541z"/>
					</g>
					<path style="fill:#EFEEFF;" d="M244.558,365.541c0,4.1,1.425,7.864,3.816,10.836c1.141,1.431,2.514,2.669,4.055,3.668
						c2.714,1.779,5.956,2.804,9.437,2.804c3.488,0,6.73-1.032,9.444-2.811c1.534-0.993,2.907-2.237,4.048-3.661
						c2.392-2.972,3.816-6.736,3.816-10.836c0-2.798-0.664-5.447-1.85-7.787c-1.463-2.901-3.713-5.325-6.472-7.007
						c-2.617-1.592-5.692-2.514-8.986-2.514c-3.288,0-6.356,0.922-8.973,2.508c-2.759,1.676-5.015,4.106-6.485,7.007
						C245.221,360.087,244.558,362.737,244.558,365.541z M247.22,365.541c0-2.946,0.87-5.699,2.378-8
						c0.78-1.206,1.747-2.289,2.849-3.21c2.546-2.147,5.834-3.436,9.418-3.436c3.584,0,6.878,1.289,9.424,3.436
						c1.102,0.922,2.063,2.005,2.849,3.21c1.508,2.301,2.385,5.054,2.385,8c0,4.055-1.65,7.723-4.306,10.378h-0.007
						c-0.438,0.438-0.902,0.851-1.399,1.231c-2.469,1.908-5.576,3.049-8.948,3.049c-3.365,0-6.466-1.141-8.941-3.049
						c-0.49-0.38-0.96-0.793-1.399-1.225C248.864,373.27,247.22,369.602,247.22,365.541z"/>
				</g>
				<g>
					<path style="fill:#EFEEFF;" d="M255.221,383.142h4.082v-16.933c0-1.127-0.914-2.041-2.041-2.041l0,0
						c-1.127,0-2.041,0.914-2.041,2.041V383.142z"/>
					<path style="fill:#EFEEFF;" d="M251.576,382.703l8.389,2.704c0.666,0.215,1.38-0.151,1.595-0.817l0,0
						c0.215-0.666-0.151-1.38-0.817-1.595l-8.389-2.704c-0.666-0.215-1.38,0.151-1.594,0.817l0,0
						C250.545,381.774,250.911,382.488,251.576,382.703z"/>
				</g>
			</g>
			<g>
				<g>
					
						<linearGradient id="SVGID_00000034053155280849634500000008616260773001727662_" gradientUnits="userSpaceOnUse" x1="291.2515" y1="166.4983" x2="313.3832" y2="166.4983">
						<stop  offset="0" style="stop-color:#FFC47E"/>
						<stop  offset="0.1652" style="stop-color:#FFBE80"/>
						<stop  offset="0.3833" style="stop-color:#FFAE85"/>
						<stop  offset="0.631" style="stop-color:#FF928E"/>
						<stop  offset="0.8986" style="stop-color:#FF6C9B"/>
						<stop  offset="0.9935" style="stop-color:#FF5DA0"/>
					</linearGradient>
					<path style="fill:url(#SVGID_00000034053155280849634500000008616260773001727662_);" d="M318.657,155.825
						c1.608,1.608-1.868,7.689-7.762,13.584c-5.895,5.895-11.976,9.37-13.584,7.762c-1.608-1.608,1.868-7.689,7.762-13.584
						C310.968,157.693,317.05,154.217,318.657,155.825z"/>
					<g>
						<polygon style="fill:#F9A19E;" points="309.553,181.639 315.516,187.002 319.686,182.361 324.56,176.94 318.597,171.583 
							316.302,174.136 						"/>
						<g>
							<path style="fill:#F9A19E;" d="M333.881,153.843c0.41,1.908,0.77,4.086,0.757,5.8c-0.007,0.885,0.303,1.743,0.936,2.363
								l3.098,3.034c0.329,0.322,0.393,0.835,0.136,1.217c-0.381,0.565-1.018,1.309-1.843,1.549c0,0-0.249,4.895-2.78,8.698
								c-0.797,1.198-2.053,2.024-3.451,2.367c-14.987,3.681-22.062-2.87-23.585-17.887c-0.334-3.289,0.612-6.576,2.615-9.206
								c3.157-4.144,9.568-10.47,17.33-6.786C330.629,146.669,333.06,150.018,333.881,153.843z"/>
							<g>
								<path style="fill:#1E1A53;" d="M328.846,160.569c0.111-0.005,0.218-0.059,0.286-0.158c1.314-1.914,3.12-0.858,3.197-0.812
									c0.177,0.106,0.401,0.049,0.505-0.123c0.106-0.174,0.052-0.399-0.12-0.505c-0.851-0.521-2.814-0.974-4.188,1.023
									c-0.115,0.168-0.072,0.397,0.095,0.512C328.688,160.553,328.769,160.573,328.846,160.569z"/>
							</g>
							<g>
								<path style="fill:#1E1A53;" d="M334.762,169.762c-0.078-0.079-0.19-0.122-0.309-0.106c-2.302,0.304-2.725-1.745-2.742-1.833
									c-0.04-0.202-0.232-0.33-0.43-0.292c-0.2,0.038-0.331,0.229-0.295,0.427c0.182,0.981,1.16,2.743,3.563,2.428
									c0.202-0.027,0.343-0.213,0.316-0.413C334.855,169.89,334.817,169.817,334.762,169.762z"/>
							</g>
							<g>
								<path style="fill:#FC5F49;" d="M338.407,151.323c0,0,2.027,4.557-2.673,5.295l-0.095-2.999c0,0-2.965,4.593-9.305,4.477
									l0.448-2.413c-2.875,3.142-1.521,11.84-1.521,11.84s-2.013-4.333-4.126-6.202c-1.603-1.418-4.03-0.518-4.496,1.571
									c-0.269,1.204-0.111,2.844,1.327,4.845c0.768,1.069,2.065,1.715,3.359,1.474l0.057-0.011c0,0,0.645,3.039-0.008,5.782
									c-0.572,2.403-2.723,3.676-5.532,3.449c-2.185-0.177-4.171-1.347-5.585-3.021c-2.216-2.625-5.557-7.801-5.815-15.362
									c-0.244-7.133,2.882-12.854,9.092-16.371c4.75-2.69,12.821-2.137,18.761,0.666c1.185,0.559,2.422,1.028,3.702,1.305
									c2.802,0.605,7.883,2.744,4.512,10.221C340.508,155.868,338.338,150.882,338.407,151.323z"/>
							</g>
							
								<linearGradient id="SVGID_00000029734666246310435860000001625287088987125691_" gradientUnits="userSpaceOnUse" x1="295.1093" y1="163.8557" x2="327.4426" y2="139.1891">
								<stop  offset="0.002" style="stop-color:#4E3582"/>
								<stop  offset="0.122" style="stop-color:#543683"/>
								<stop  offset="0.2805" style="stop-color:#643B86"/>
								<stop  offset="0.4605" style="stop-color:#80418A"/>
								<stop  offset="0.6564" style="stop-color:#A64B90"/>
								<stop  offset="0.8628" style="stop-color:#D75798"/>
								<stop  offset="1" style="stop-color:#FB609E"/>
							</linearGradient>
							<path style="fill:url(#SVGID_00000029734666246310435860000001625287088987125691_);" d="M332.925,144.628
								c-8.214,8.73-17.074,16.842-26.57,24.346c0,0-11.092-13.195-3.22-24.075c1.914-2.645,4.609-4.624,7.632-5.857
								C316.072,136.88,325.488,135.072,332.925,144.628z"/>
							<path style="fill:#1E1A53;" d="M332.641,162.771c0.159,0.614-0.165,1.23-0.724,1.374c-0.558,0.145-1.14-0.237-1.299-0.852
								c-0.159-0.614,0.165-1.23,0.724-1.374C331.901,161.775,332.482,162.156,332.641,162.771z"/>
						</g>
					</g>
					<g>
						<g>
							
								<linearGradient id="SVGID_00000121977111226894788290000007085713002934310807_" gradientUnits="userSpaceOnUse" x1="240.2699" y1="298.0916" x2="280.5902" y2="298.0916">
								<stop  offset="0.002" style="stop-color:#4E3582"/>
								<stop  offset="0.1931" style="stop-color:#543887"/>
								<stop  offset="0.4454" style="stop-color:#643F95"/>
								<stop  offset="0.7305" style="stop-color:#804BAD"/>
								<stop  offset="0.9987" style="stop-color:#A059C9"/>
							</linearGradient>
							<path style="fill:url(#SVGID_00000121977111226894788290000007085713002934310807_);" d="M255.048,298.624l2.054-41.202
								l-2.412-4.389c-3.835-6.978-2.567-15.654,3.103-21.243l4.235-4.174l18.562,6.924l-6.562,21.985
								c0.13,19.634-0.779,37.326-6.449,46.127c-1.819,2.824-3.534,5.724-4.752,8.855c-11.536,29.655-13.092,57.058-13.092,57.058
								l-8.502-0.165C238.45,340.19,241.3,316.637,255.048,298.624z"/>
						</g>
					</g>
					<g>
						
							<linearGradient id="SVGID_00000041268904645114418020000008969864126723278011_" gradientUnits="userSpaceOnUse" x1="259.7869" y1="238.4134" x2="324.2869" y2="192.4135">
							<stop  offset="0" style="stop-color:#FF5DA0"/>
							<stop  offset="0.1536" style="stop-color:#FF639D"/>
							<stop  offset="0.3563" style="stop-color:#FF7394"/>
							<stop  offset="0.5865" style="stop-color:#FF8F86"/>
							<stop  offset="0.8351" style="stop-color:#FFB572"/>
							<stop  offset="1" style="stop-color:#FFD262"/>
						</linearGradient>
						<path style="fill:url(#SVGID_00000041268904645114418020000008969864126723278011_);" d="M316.914,190.919
							c-0.027,1.251-0.277,2.878-0.635,4.702c-0.375,1.859-0.876,3.906-1.403,5.909c-0.474,1.779-1.082,3.504-1.824,5.167
							c-2.1,4.8-5.256,9.091-9.242,12.568l-0.939,0.822c-1.099,0.974-11.236,10.494-11.236,10.494l-8.832,22.731
							c0,0-21.229-2.708-27.853-17.69c-0.474-1.055-0.867-2.181-1.18-3.37c1.43-2.387,2.852-4.559,4.72-6.829
							c3.003-3.674,7.16-7.607,14.311-13.185c0,0,15.41-25.118,19.987-28.658c4.693-3.638,12.604-5.444,14.686-5.39
							c1.01,0.036,2.297-0.107,3.37-0.268c1.144-0.17,2.02-0.358,2.02-0.358s3.263,5.632,3.933,11.156
							C316.887,189.462,316.932,190.195,316.914,190.919z"/>
					</g>
					<g>
						<path style="fill:#FC5F49;" d="M316.914,190.919c-0.027,1.251-0.277,2.878-0.635,4.702c-0.375,1.859-0.876,3.906-1.403,5.909
							c-0.474,1.779-1.082,3.504-1.824,5.167c-16.84,19.799-51.317,27.558-58.102,28.926c-0.769,0.152-1.18,0.223-1.18,0.223
							l-5.354-8.224c3.477-0.581,6.829-1.332,10.074-2.199c31.366-8.456,51.657-29.078,58.307-36.702
							C316.887,189.462,316.932,190.195,316.914,190.919z"/>
					</g>
					
						<linearGradient id="SVGID_00000003803859041663958050000018004351710294635662_" gradientUnits="userSpaceOnUse" x1="245.7894" y1="379.9163" x2="260.741" y2="370.4505">
						<stop  offset="0.0065" style="stop-color:#FF5DA0"/>
						<stop  offset="0.0818" style="stop-color:#FF6F9A"/>
						<stop  offset="0.2397" style="stop-color:#FF8D90"/>
						<stop  offset="0.4052" style="stop-color:#FFA588"/>
						<stop  offset="0.5797" style="stop-color:#FFB782"/>
						<stop  offset="0.7689" style="stop-color:#FFC17F"/>
						<stop  offset="1" style="stop-color:#FFC47E"/>
					</linearGradient>
					<path style="fill:url(#SVGID_00000003803859041663958050000018004351710294635662_);" d="M261.495,383.028
						c-17.427-4.601-25.117-6.977-19.442-14.959c0.008-0.03,0.03-0.055,0.053-0.081l6.229,0.092l14.187,11.083
						C266.307,381.56,263.932,383.66,261.495,383.028z"/>
					<g>
						<path style="fill:#F9A19E;" d="M326.98,287.324c0.181,0.27,0.17,0.618,0.199,0.942c0.188,2.15,2.489,3.712,4.639,3.529
							c4.121-0.35,7.991-6.472,4.726-9.878c-1.481-1.545-3.669-2.141-5.743-2.669c-3.178-0.81-6.368-1.617-9.624-2.007
							c-1.394-0.167-2.95-0.213-4.041,0.671c-0.372,0.302-0.679,0.742-0.651,1.22c0.018,0.319,0.182,0.609,0.349,0.881
							c2.039,3.312,5.385,5.794,9.146,6.783C326.348,286.894,326.754,287.001,326.98,287.324z"/>
						<path style="fill:#F9A19E;" d="M295.329,236.007c-0.227,14.602,21.399,43.423,21.399,43.423l4.592-1.465
							c-4.578-13.82-10.991-30.797-13.408-38.077c0,0,0.441-9.939,1.408-21.299l-13.721-1.948L295.329,236.007z"/>
						
							<linearGradient id="SVGID_00000175300930866739377100000002320388886997112736_" gradientUnits="userSpaceOnUse" x1="273.8426" y1="222.8828" x2="338.3425" y2="176.8829">
							<stop  offset="0" style="stop-color:#FF5DA0"/>
							<stop  offset="0.1536" style="stop-color:#FF639D"/>
							<stop  offset="0.3563" style="stop-color:#FF7394"/>
							<stop  offset="0.5865" style="stop-color:#FF8F86"/>
							<stop  offset="0.8351" style="stop-color:#FFB572"/>
							<stop  offset="1" style="stop-color:#FFD262"/>
						</linearGradient>
						<path style="fill:url(#SVGID_00000175300930866739377100000002320388886997112736_);" d="M287.949,212.923
							c-0.475,1.291,0.363,2.69,1.725,2.883l5.926,0.835l13.721,1.948l0.227,0.029l4.465-25.437
							c0.853-7.749-2.488-9.839-2.872-10.052c-0.014-0.014-0.028-0.014-0.028-0.014c-1.536-1.465-3.597-2.375-5.758-2.232
							c-3.412,0.199-6.256,2.303-7.578,5.218c0,0.014,0,0.014-0.014,0.028c-0.199,0.469-0.37,0.953-0.498,1.465l-0.014,0.043
							L287.949,212.923z"/>
					</g>
				</g>
				<g>
					
						<linearGradient id="SVGID_00000163774052645041749510000013034573172874509461_" gradientUnits="userSpaceOnUse" x1="251.1029" y1="220.9694" x2="227.3529" y2="138.2195">
						<stop  offset="0" style="stop-color:#FFC47E"/>
						<stop  offset="0.1652" style="stop-color:#FFBE80"/>
						<stop  offset="0.3833" style="stop-color:#FFAE85"/>
						<stop  offset="0.631" style="stop-color:#FF928E"/>
						<stop  offset="0.8986" style="stop-color:#FF6C9B"/>
						<stop  offset="0.9935" style="stop-color:#FF5DA0"/>
					</linearGradient>
					<path style="fill:url(#SVGID_00000163774052645041749510000013034573172874509461_);" d="M296.567,177.129l-41.488,60.751
						c-1.951,2.857-5.857,3.599-8.721,1.643l-60.751-41.488c-2.857-1.951-3.587-5.859-1.636-8.716l41.487-60.751
						c1.956-2.864,5.857-3.599,8.713-1.648l60.751,41.488C297.788,170.364,298.523,174.265,296.567,177.129z"/>
					<g>
						<path style="fill:#FFFFFF;" d="M263.395,153.467c0,1.206-0.978,2.185-2.184,2.185c-1.207,0-2.185-0.978-2.185-2.185
							c0-1.206,0.978-2.185,2.185-2.185C262.417,151.282,263.395,152.26,263.395,153.467z"/>
						<path style="fill:#FFFFFF;" d="M265.015,157.632c0.555,0.555,0.555,1.454,0,2.009s-1.454,0.555-2.009,0
							c-0.555-0.555-0.555-1.454,0-2.009C263.561,157.077,264.46,157.077,265.015,157.632z"/>
					</g>
					<path style="fill:#6C3DA4;" d="M259.107,231.982l-4.028,5.898c-1.951,2.857-5.857,3.599-8.721,1.643l-60.751-41.488
						c-2.857-1.951-3.587-5.859-1.636-8.716l4.028-5.898L259.107,231.982z"/>
					<g>
						
							<rect x="230.135" y="148.248" transform="matrix(0.564 -0.8258 0.8258 0.564 -17.7729 267.0071)" style="fill:#4A1984;" width="27.637" height="4.171"/>
					</g>
					<g>
						
							<rect x="260.031" y="168.664" transform="matrix(0.564 -0.8258 0.8258 0.564 -21.5951 300.6012)" style="fill:#4A1984;" width="27.637" height="4.171"/>
					</g>
					
						<text transform="matrix(0.8258 0.564 -0.564 0.8258 199.7137 186.2786)" style="fill:#FFFFFF; font-family:'JosefinSans-Bold'; font-size:13px;">Delivery</text>
					
						<rect x="210.65" y="169.707" transform="matrix(0.8258 0.564 -0.564 0.8258 140.714 -111.66)" style="fill:#FB609E;" width="80.917" height="4.492"/>
					<path style="fill:#4E3582;" d="M235.206,127.626l-40.999,60.035l-6.208-4.24l37.46-54.853c1.956-2.864,5.857-3.599,8.713-1.648
						L235.206,127.626z"/>
				</g>
			</g>
		</g>
	</g>
	<g>
		<path style="fill:#6C3DA4;" d="M366.047,88.677c0,13.609-15.822,24.082-15.822,24.082s-15.822-9.838-15.822-24.082
			c0-8.738,7.084-15.822,15.822-15.822C358.963,72.855,366.047,79.939,366.047,88.677z"/>
		<circle style="fill:#A06BC1;" cx="350.225" cy="89.208" r="11.454"/>
		<circle style="fill:#FFFFFF;" cx="350.225" cy="89.208" r="8.806"/>
	</g>
</g>
<g id="DESIGNED_BY_FREEPIK">
	<g>
		<g>
			<g id="XMLID_29_">
				<g id="XMLID_48_">
					<path id="XMLID_56_" style="fill:#1D262D;" d="M260.104,465.465c-0.433,0.443-0.804,0.931-1.108,1.453l-0.465-0.241
						c-0.066-0.298-0.35-0.502-0.659-0.466c-0.331,0.039-0.567,0.339-0.529,0.67c0.04,0.331,0.339,0.567,0.67,0.528
						c0.065-0.008,0.127-0.025,0.184-0.052l0.451,0.234c-0.251,0.554-0.432,1.139-0.539,1.743l0.747,0.132
						c0.23-1.306,0.85-2.507,1.792-3.473L260.104,465.465z"/>
					<path id="XMLID_55_" style="fill:#1D262D;" d="M265.591,463.164c-0.171,0-0.341,0.006-0.508,0.017l-0.075-0.626
						c0.188-0.149,0.296-0.389,0.267-0.645c-0.047-0.394-0.403-0.674-0.796-0.628c-0.394,0.046-0.675,0.402-0.628,0.795
						c0.031,0.254,0.19,0.462,0.404,0.564l0.074,0.625c-0.715,0.116-1.403,0.332-2.061,0.646l0.327,0.684
						c0.935-0.446,1.941-0.673,2.995-0.673c0.498,0,0.993,0.053,1.476,0.157l0.161-0.74
						C266.692,463.222,266.142,463.164,265.591,463.164z"/>
					<path id="XMLID_54_" style="fill:#1D262D;" d="M272.195,465.711c0.33-0.04,0.566-0.342,0.525-0.672
						c-0.041-0.331-0.342-0.566-0.672-0.526c-0.31,0.038-0.536,0.305-0.531,0.609l-0.416,0.363c-0.418-0.431-0.888-0.813-1.406-1.14
						l-0.404,0.642c1.135,0.715,2.02,1.726,2.563,2.925l0.691-0.313c-0.252-0.554-0.569-1.071-0.944-1.545l0.402-0.351
						C272.066,465.715,272.128,465.718,272.195,465.711z"/>
					<path id="XMLID_53_" style="fill:#1D262D;" d="M265.044,473.372c-0.386,0.023-0.776,0.035-1.157,0.035
						c-0.879,0-1.733-0.061-2.479-0.18c-0.391-0.062-0.846-0.154-1.271-0.292c1.047,1.861,3.07,3.125,5.389,3.125
						c2.856,0,5.264-1.916,5.949-4.504c-0.681,0.45-1.505,0.825-2.458,1.123C267.839,473.047,266.464,473.287,265.044,473.372z"/>
					<path id="XMLID_49_" style="fill:#1D262D;" d="M265.591,464.679c-3.352,0-6.079,2.667-6.079,5.943
						c0,0.426,0.046,0.85,0.138,1.262c0.674,0.482,2.705,0.89,5.347,0.731c2.88-0.174,5.298-0.958,6.673-2.159
						c-0.006-0.194-0.022-0.39-0.045-0.582C271.244,466.913,268.65,464.679,265.591,464.679z M263.433,471.194
						c-1.021,0-1.85-0.829-1.85-1.85c0-1.02,0.829-1.85,1.85-1.85c1.018,0,1.85,0.83,1.85,1.85
						C265.283,470.365,264.452,471.194,263.433,471.194z M268.169,470.286c-0.75,0-1.361-0.609-1.361-1.359s0.611-1.361,1.361-1.361
						c0.751,0,1.36,0.611,1.36,1.361S268.921,470.286,268.169,470.286z"/>
				</g>
				<path id="XMLID_46_" style="fill:#1D262D;" d="M281.595,466.546c-0.295-0.116-0.805-0.309-1.383-0.237
					c-0.551,0.068-0.844,0.341-0.844,1.007v0.866h2.229v1.717h-2.229v5.455h-1.932v-5.455h-1.338v-1.717h1.338v-0.889
					c0-1.68,0.897-2.782,2.568-2.782c0.643,0,1.157,0.121,1.59,0.308V466.546z"/>
				<path id="XMLID_44_" style="fill:#1D262D;" d="M286.298,469.878c-0.178-0.029-0.357-0.046-0.526-0.046
					c-0.895,0-1.51,0.548-1.51,1.613v3.908h-1.933v-7.172h1.873v0.784c0.451-0.673,1.14-0.977,2.021-0.977
					c0.413,0,0.847,0.127,1.094,0.337L286.298,469.878z"/>
				<path id="XMLID_41_" style="fill:#1D262D;" d="M293.966,471.756c0,0.223-0.017,0.489-0.037,0.652h-5.086
					c0.207,1.035,0.933,1.487,1.844,1.487c0.621,0,1.295-0.252,1.813-0.689l1.134,1.243c-0.815,0.748-1.851,1.088-3.058,1.088
					c-2.197,0-3.723-1.495-3.723-3.752c0-2.258,1.48-3.797,3.626-3.797C292.544,467.99,293.958,469.522,293.966,471.756z
					 M288.851,471.09h3.175c-0.177-0.918-0.731-1.436-1.561-1.436C289.554,469.655,289.021,470.203,288.851,471.09z"/>
				<path id="XMLID_38_" style="fill:#1D262D;" d="M301.619,471.756c0,0.223-0.016,0.489-0.037,0.652h-5.085
					c0.208,1.035,0.933,1.487,1.844,1.487c0.622,0,1.296-0.252,1.814-0.689l1.133,1.243c-0.815,0.748-1.852,1.088-3.059,1.088
					c-2.198,0-3.723-1.495-3.723-3.752c0-2.258,1.481-3.797,3.628-3.797C300.197,467.99,301.611,469.522,301.619,471.756z
					 M296.505,471.09h3.174c-0.178-0.918-0.733-1.436-1.562-1.436C297.208,469.655,296.675,470.203,296.505,471.09z"/>
				<path id="XMLID_35_" style="fill:#1D262D;" d="M309.965,471.764c0,2.154-1.495,3.774-3.473,3.774
					c-0.962,0-1.643-0.377-2.109-0.933v3.709h-1.925v-10.133h1.888v0.792c0.467-0.585,1.154-0.984,2.139-0.984
					C308.47,467.99,309.965,469.61,309.965,471.764z M304.287,471.764c0,1.133,0.748,1.977,1.844,1.977
					c1.141,0,1.85-0.881,1.85-1.977s-0.709-1.977-1.85-1.977C305.035,469.788,304.287,470.631,304.287,471.764z"/>
				<path id="XMLID_32_" style="fill:#1D262D;" d="M313.068,465.836c0,0.696-0.541,1.228-1.236,1.228
					c-0.695,0-1.228-0.532-1.228-1.228c0-0.695,0.533-1.243,1.228-1.243C312.527,464.592,313.068,465.14,313.068,465.836z
					 M312.808,475.354h-1.932v-7.172h1.932V475.354z"/>
				<path id="XMLID_30_" style="fill:#1D262D;" d="M316.033,470.736l2.701-2.554h2.369l-3.479,3.375l3.5,3.797h-2.375l-2.717-2.901
					v2.901H314.1v-10.658h1.933V470.736z"/>
			</g>
			<g>
				<path style="fill:#1D262D;" d="M184.413,475.289v-1.055c-0.526,0.718-1.392,1.23-2.388,1.23c-1.846,0-3.149-1.406-3.149-3.705
					c0-2.257,1.29-3.721,3.149-3.721c0.953,0,1.816,0.469,2.388,1.245v-3.765h1.099v9.77H184.413z M184.413,473.37v-3.207
					c-0.396-0.615-1.245-1.143-2.124-1.143c-1.421,0-2.271,1.172-2.271,2.739c0,1.567,0.85,2.724,2.271,2.724
					C183.167,474.483,184.017,473.986,184.413,473.37z"/>
				<path style="fill:#1D262D;" d="M186.933,471.745c0-2.051,1.464-3.706,3.484-3.706c2.139,0,3.398,1.67,3.398,3.793v0.279h-5.726
					c0.087,1.333,1.024,2.445,2.548,2.445c0.807,0,1.627-0.322,2.182-0.894l0.527,0.719c-0.703,0.703-1.654,1.083-2.813,1.083
					C188.441,475.464,186.933,473.956,186.933,471.745z M190.404,468.947c-1.51,0-2.256,1.274-2.314,2.358h4.643
					C192.717,470.25,192.015,468.947,190.404,468.947z"/>
				<path style="fill:#1D262D;" d="M194.607,474.351l0.572-0.79c0.468,0.542,1.361,1.011,2.329,1.011
					c1.083,0,1.669-0.514,1.669-1.217c0-1.713-4.379-0.658-4.379-3.28c0-1.099,0.951-2.036,2.636-2.036
					c1.202,0,2.051,0.454,2.622,1.025l-0.512,0.762c-0.426-0.513-1.202-0.894-2.111-0.894c-0.967,0-1.567,0.483-1.567,1.113
					c0,1.552,4.38,0.527,4.38,3.281c0,1.187-0.952,2.138-2.782,2.138C196.306,475.464,195.325,475.113,194.607,474.351z"/>
				<path style="fill:#1D262D;" d="M201.478,466.471c0-0.41,0.336-0.747,0.731-0.747c0.411,0,0.747,0.337,0.747,0.747
					c0,0.41-0.336,0.732-0.747,0.732C201.814,467.204,201.478,466.881,201.478,466.471z M201.667,475.289v-7.074h1.1v7.074H201.667z
					"/>
				<path style="fill:#1D262D;" d="M204.583,477.105l0.555-0.82c0.586,0.703,1.289,0.967,2.3,0.967c1.172,0,2.271-0.571,2.271-2.124
					v-1.011c-0.513,0.718-1.377,1.26-2.373,1.26c-1.846,0-3.148-1.377-3.148-3.662c0-2.27,1.288-3.676,3.148-3.676
					c0.952,0,1.802,0.469,2.373,1.245v-1.069h1.1v6.87c0,2.343-1.642,3.075-3.37,3.075
					C206.238,478.16,205.416,477.925,204.583,477.105z M209.708,473.253v-3.09c-0.381-0.615-1.23-1.143-2.109-1.143
					c-1.42,0-2.27,1.128-2.27,2.694c0,1.554,0.85,2.695,2.27,2.695C208.478,474.41,209.328,473.869,209.708,473.253z"/>
				<path style="fill:#1D262D;" d="M217.413,475.289v-4.629c0-1.244-0.63-1.64-1.582-1.64c-0.864,0-1.685,0.527-2.094,1.099v5.17
					h-1.1v-7.074h1.1v1.025c0.497-0.586,1.465-1.201,2.519-1.201c1.479,0,2.255,0.747,2.255,2.284v4.966H217.413z"/>
				<path style="fill:#1D262D;" d="M219.933,471.745c0-2.051,1.464-3.706,3.486-3.706c2.139,0,3.397,1.67,3.397,3.793v0.279h-5.726
					c0.086,1.333,1.023,2.445,2.547,2.445c0.807,0,1.626-0.322,2.183-0.894l0.528,0.719c-0.703,0.703-1.656,1.083-2.813,1.083
					C221.441,475.464,219.933,473.956,219.933,471.745z M223.404,468.947c-1.508,0-2.256,1.274-2.313,2.358h4.642
					C225.718,470.25,225.015,468.947,223.404,468.947z"/>
				<path style="fill:#1D262D;" d="M233.35,475.289v-1.055c-0.526,0.718-1.392,1.23-2.388,1.23c-1.846,0-3.15-1.406-3.15-3.705
					c0-2.257,1.29-3.721,3.15-3.721c0.953,0,1.816,0.469,2.388,1.245v-3.765h1.099v9.77H233.35z M233.35,473.37v-3.207
					c-0.396-0.615-1.245-1.143-2.124-1.143c-1.421,0-2.271,1.172-2.271,2.739c0,1.567,0.85,2.724,2.271,2.724
					C232.105,474.483,232.955,473.986,233.35,473.37z"/>
				<path style="fill:#1D262D;" d="M239.692,475.289v-9.77h1.099v3.765c0.572-0.776,1.422-1.245,2.389-1.245
					c1.846,0,3.148,1.464,3.148,3.721c0,2.299-1.303,3.705-3.148,3.705c-0.996,0-1.861-0.513-2.389-1.23v1.055H239.692z
					 M242.9,474.483c1.436,0,2.285-1.156,2.285-2.724c0-1.567-0.85-2.739-2.285-2.739c-0.863,0-1.729,0.527-2.109,1.143v3.207
					C241.171,473.986,242.037,474.483,242.9,474.483z"/>
				<path style="fill:#1D262D;" d="M247.529,477.061c0.162,0.073,0.426,0.117,0.601,0.117c0.483,0,0.805-0.161,1.054-0.747
					l0.47-1.069l-2.959-7.147h1.185l2.358,5.8l2.345-5.8h1.199l-3.544,8.51c-0.425,1.025-1.143,1.421-2.08,1.436
					c-0.233,0-0.601-0.044-0.806-0.103L247.529,477.061z"/>
			</g>
		</g>
	</g>
</g>
</svg>
