<svg xmlns="http://www.w3.org/2000/svg" xmlns:xlink="http://www.w3.org/1999/xlink" xmlns:inkscape="http://www.inkscape.org/namespaces/inkscape" version="1.1" width="375" height="375" viewBox="0 0 375 375">
<defs>
<clipPath id="clip_0">
<path transform="matrix(.24,0,0,.24,0,0)" d="M0 0H1562.5V1562.5H0Z" clip-rule="evenodd"/>
</clipPath>
<clipPath id="clip_1">
<path transform="matrix(.24,0,0,.24,0,0)" d="M0 0H1562.5V1562.5H0Z" clip-rule="evenodd"/>
</clipPath>
<clipPath id="clip_2">
<path transform="matrix(.24,0,0,.24,0,0)" d="M79.077449 357.78474H460.32746V817.1597H79.077449Z" clip-rule="evenodd"/>
</clipPath>
<clipPath id="clip_3">
<path transform="matrix(.24,0,0,.24,0,0)" d="M0 0H1562.5V1562.5H0Z" clip-rule="evenodd"/>
</clipPath>
<clipPath id="clip_4">
<path transform="matrix(.24,0,0,.24,0,0)" d="M221.43347 622.17428H677.6835V1082.7869H221.43347Z" clip-rule="evenodd"/>
</clipPath>
</defs>
<g clip-path="url(#clip_0)">
<path transform="matrix(.75,0,0,.75,0,0)" d="M0 0H500V500H0Z" fill="#ffffff"/>
</g>
<g clip-path="url(#clip_1)">
<path transform="matrix(.75,0,0,.75,0,0)" d="M0 0H500V500H0Z" fill="#ffffff"/>
</g>
<g clip-path="url(#clip_2)">
<path transform="matrix(.34926639,0,0,.34926639,18.978587,86.02623)" d="M413.4 500 309.3 346 404.9 198.2H333.2L271.30003 289.8 194.20001 175.69998C215.70001 171.69998 232.00002 162.19998 243.20001 147.09998 254.40001 132.09998 260 113.79997 260 92.29997 260 74.49997 256.9 59.699975 250.8 47.799974 244.6 35.89997 236.3 26.499974 225.90001 19.399973 215.40001 12.399973 203.3 7.399973 189.40001 4.399973 175.50002 1.3999729 160.8-.100027088 145.40001-.100027088H27.5V304.19996H94.5V182.6H127.6L233.3 346 129.3 500H209.70001L271.40003 404.7 333 500H413.4ZM185 111.3C181.4 115.9 176.9 119.3 171.5 121.4 166.1 123.5 160 124.8 153.2 125.3 146.5 125.700008 140.09999 125.9 134.09999 125.9H94.5V56.7H138.3C144.3 56.7 150.5 57.100004 156.8 58 163.1 58.9 168.7 60.5 173.6 62.9 178.5 65.3 182.5 68.9 185.6 73.4 188.8 78 190.3 84.1 190.3 91.9 190.4 100.3 188.6 106.7 185 111.3Z" fill="#89c5e6"/>
<path transform="matrix(.34926639,0,0,.34926639,18.978587,86.02623)" d="M16.8 63C21.699999 60.6 27.3 58.9 33.6 58.1 39.899999 57.199998 46.1 56.8 52.1 56.8H95.899997V126H56.3C50.3 126 43.9 125.8 37.199998 125.4 30.499997 125 24.399998 123.700008 18.899998 121.5 13.499998 119.4 8.899998 116 5.3999979 111.4 1.8 106.7 0 100.3 0 92 0 84.3 1.6 78.1 4.7 73.5 7.9 68.9 11.9 65.4 16.8 63Z" fill="#ff3131"/>
</g>
<g clip-path="url(#clip_3)">
<text fill="#ff3131" xml:space="preserve" transform="matrix(.75 0 0 .75 76.19757 142.38509)" font-size="21.33" font-family="Montserrat" font-weight="bold"><tspan y="22" x="117.8125 135.81455 157.25043 173.4609 193.89437 211.19258 222.24163 243.6775 264.70817">SOLUTIONS</tspan></text>
<text fill="#89c5e6" xml:space="preserve" transform="matrix(.75 0 0 .75 70.78392 114.42183)" font-size="34.66" font-family="Montserrat" font-weight="bold"><tspan y="38" x="54.796876 82.03671 108.722049 133.8132 165.35042 192.03575 200.076 227.31584 250.67418 277.3595 296.76704 317.94203">HARMA HEALTH</tspan></text>
</g>
<g clip-path="url(#clip_4)">
<path transform="matrix(.34926639,0,0,.34926639,18.188555,85.27674)" d="M413.4 500 309.3 346 404.9 198.2H333.2L271.30003 289.8 194.20001 175.69998C215.70001 171.69998 232.00002 162.19998 243.20001 147.09998 254.40001 132.09998 260 113.79997 260 92.29997 260 74.49997 256.9 59.699975 250.8 47.799974 244.6 35.89997 236.3 26.499974 225.90001 19.399973 215.40001 12.399973 203.3 7.399973 189.40001 4.399973 175.50002 1.3999729 160.8-.100027088 145.40001-.100027088H27.5V304.19996H94.5V182.6H127.6L233.3 346 129.3 500H209.70001L271.40003 404.7 333 500H413.4ZM185 111.3C181.4 115.9 176.9 119.3 171.5 121.4 166.1 123.5 160 124.8 153.2 125.3 146.5 125.700008 140.09999 125.9 134.09999 125.9H94.5V56.7H138.3C144.3 56.7 150.5 57.100004 156.8 58 163.1 58.9 168.7 60.5 173.6 62.9 178.5 65.3 182.5 68.9 185.6 73.4 188.8 78 190.3 84.1 190.3 91.9 190.4 100.3 188.6 106.7 185 111.3Z" fill="#ff3131"/>
</g>
</svg>
